<?xml version="1.0" encoding="utf-8" standalone="no"?>
<!DOCTYPE svg PUBLIC "-//W3C//DTD SVG 1.1//EN"
  "http://www.w3.org/Graphics/SVG/1.1/DTD/svg11.dtd">
<svg height="345.6pt" version="1.1" viewBox="0 0 460.8 345.6" width="460.8pt" xmlns="http://www.w3.org/2000/svg" xmlns:xlink="http://www.w3.org/1999/xlink">
 <metadata>
  <rdf:RDF xmlns:cc="http://creativecommons.org/ns#" xmlns:dc="http://purl.org/dc/elements/1.1/" xmlns:rdf="http://www.w3.org/1999/02/22-rdf-syntax-ns#">
   <cc:Work>
    <dc:type rdf:resource="http://purl.org/dc/dcmitype/StillImage"/>
    <dc:date>2022-07-05T01:01:22.507721</dc:date>
    <dc:format>image/svg+xml</dc:format>
    <dc:creator>
     <cc:Agent>
      <dc:title>Matplotlib v3.4.2, https://matplotlib.org/</dc:title>
     </cc:Agent>
    </dc:creator>
   </cc:Work>
  </rdf:RDF>
 </metadata>
 <defs>
  <style type="text/css">*{stroke-linecap:butt;stroke-linejoin:round;}</style>
 </defs>
 <g id="figure_1">
  <g id="patch_1">
   <path d="M 0 345.6 
L 460.8 345.6 
L 460.8 0 
L 0 0 
z
" style="fill:#ffffff;"/>
  </g>
  <g id="axes_1">
   <g id="patch_2">
    <path d="M 68.258403 286.215774 
L 431.524035 286.215774 
L 431.524035 16.2 
L 68.258403 16.2 
z
" style="fill:#ffffff;"/>
   </g>
   <g id="matplotlib.axis_1">
    <g id="xtick_1">
     <g id="line2d_1">
      <defs>
       <path d="M 0 0 
L 0 3.5 
" id="m745a3cd987" style="stroke:#000000;stroke-width:0.8;"/>
      </defs>
      <g>
       <use style="stroke:#000000;stroke-width:0.8;" x="68.258403" xlink:href="#m745a3cd987" y="286.215774"/>
      </g>
     </g>
     <g id="text_1">
      <!-- $\mathdefault{0.00}$ -->
      <g transform="translate(55.182438 303.908131)scale(0.15 -0.15)">
       <defs>
        <path d="M 1683 4416 
C 691 4416 186 3628 186 2077 
C 186 1326 320 680 544 366 
C 768 51 1126 -128 1523 -128 
C 2490 -128 2976 705 2976 2346 
C 2976 3749 2560 4416 1683 4416 
z
M 1568 4192 
C 2189 4192 2438 3564 2438 2025 
C 2438 661 2195 96 1606 96 
C 986 96 723 744 723 2308 
C 723 3660 960 4192 1568 4192 
z
" id="URWPalladioL-Roma-30" transform="scale(0.015625)"/>
        <path d="M 794 744 
C 602 744 429 564 429 372 
C 429 179 602 0 787 0 
C 992 0 1171 173 1171 372 
C 1171 564 992 744 794 744 
z
" id="URWPalladioL-Roma-2e" transform="scale(0.015625)"/>
       </defs>
       <use transform="scale(0.996264)" xlink:href="#URWPalladioL-Roma-30"/>
       <use transform="translate(49.8132 0)scale(0.996264)" xlink:href="#URWPalladioL-Roma-2e"/>
       <use transform="translate(74.719801 0)scale(0.996264)" xlink:href="#URWPalladioL-Roma-30"/>
       <use transform="translate(124.533001 0)scale(0.996264)" xlink:href="#URWPalladioL-Roma-30"/>
      </g>
     </g>
    </g>
    <g id="xtick_2">
     <g id="line2d_2">
      <g>
       <use style="stroke:#000000;stroke-width:0.8;" x="113.666607" xlink:href="#m745a3cd987" y="286.215774"/>
      </g>
     </g>
     <g id="text_2">
      <!-- $\mathdefault{0.25}$ -->
      <g transform="translate(100.590642 303.908131)scale(0.15 -0.15)">
       <defs>
        <path d="M 102 160 
L 102 0 
C 1299 0 1299 0 1530 0 
C 1760 0 1760 0 2995 0 
C 2982 125 2982 186 2982 269 
C 2982 348 2982 407 2995 539 
C 2259 539 1965 539 781 539 
L 1946 1761 
C 2566 2414 2758 2763 2758 3238 
C 2758 3966 2259 4416 1446 4416 
C 986 4416 672 4288 358 3969 
L 250 3099 
L 435 3099 
L 518 3393 
C 621 3763 851 3923 1280 3923 
C 1830 3923 2182 3577 2182 3035 
C 2182 2555 1914 2083 1190 1316 
L 102 160 
z
" id="URWPalladioL-Roma-32" transform="scale(0.015625)"/>
        <path d="M 813 3877 
C 1638 3877 1997 3877 2765 3877 
L 2797 3907 
C 2784 4016 2784 4064 2784 4144 
C 2784 4229 2784 4277 2797 4386 
L 2765 4416 
C 2285 4416 1997 4416 1651 4416 
C 1299 4416 1018 4416 538 4416 
L 506 4403 
C 512 4011 518 3729 518 3523 
C 518 2977 499 2360 480 2077 
L 608 2038 
C 909 2341 1082 2432 1395 2432 
C 2010 2432 2394 1993 2394 1296 
C 2394 580 1984 160 1286 160 
C 941 160 621 277 531 444 
L 237 973 
L 83 883 
C 230 516 307 310 397 27 
C 576 -71 832 -128 1107 -128 
C 1536 -128 1990 59 2342 368 
C 2733 716 2938 1154 2938 1630 
C 2938 2359 2419 2874 1690 2874 
C 1382 2874 1152 2791 755 2554 
L 813 3877 
z
" id="URWPalladioL-Roma-35" transform="scale(0.015625)"/>
       </defs>
       <use transform="scale(0.996264)" xlink:href="#URWPalladioL-Roma-30"/>
       <use transform="translate(49.8132 0)scale(0.996264)" xlink:href="#URWPalladioL-Roma-2e"/>
       <use transform="translate(74.719801 0)scale(0.996264)" xlink:href="#URWPalladioL-Roma-32"/>
       <use transform="translate(124.533001 0)scale(0.996264)" xlink:href="#URWPalladioL-Roma-35"/>
      </g>
     </g>
    </g>
    <g id="xtick_3">
     <g id="line2d_3">
      <g>
       <use style="stroke:#000000;stroke-width:0.8;" x="159.074811" xlink:href="#m745a3cd987" y="286.215774"/>
      </g>
     </g>
     <g id="text_3">
      <!-- $\mathdefault{0.50}$ -->
      <g transform="translate(145.998846 303.908131)scale(0.15 -0.15)">
       <use transform="scale(0.996264)" xlink:href="#URWPalladioL-Roma-30"/>
       <use transform="translate(49.8132 0)scale(0.996264)" xlink:href="#URWPalladioL-Roma-2e"/>
       <use transform="translate(74.719801 0)scale(0.996264)" xlink:href="#URWPalladioL-Roma-35"/>
       <use transform="translate(124.533001 0)scale(0.996264)" xlink:href="#URWPalladioL-Roma-30"/>
      </g>
     </g>
    </g>
    <g id="xtick_4">
     <g id="line2d_4">
      <g>
       <use style="stroke:#000000;stroke-width:0.8;" x="204.483015" xlink:href="#m745a3cd987" y="286.215774"/>
      </g>
     </g>
     <g id="text_4">
      <!-- $\mathdefault{0.75}$ -->
      <g transform="translate(191.40705 303.908131)scale(0.15 -0.15)">
       <defs>
        <path d="M 358 32 
L 416 -51 
C 666 -32 666 -32 710 -32 
C 755 -32 755 -32 1005 -51 
C 1274 649 1587 1317 2010 2087 
L 3181 4199 
L 3181 4372 
C 2490 4372 2266 4372 1747 4372 
C 1280 4372 966 4372 346 4372 
L 282 4359 
C 301 3750 301 3750 301 3685 
C 301 3614 301 3614 282 3031 
L 474 3031 
L 518 3390 
C 570 3789 614 3840 909 3840 
L 2618 3840 
C 2362 3313 2163 2941 1920 2549 
L 358 32 
z
" id="URWPalladioL-Roma-37" transform="scale(0.015625)"/>
       </defs>
       <use transform="scale(0.996264)" xlink:href="#URWPalladioL-Roma-30"/>
       <use transform="translate(49.8132 0)scale(0.996264)" xlink:href="#URWPalladioL-Roma-2e"/>
       <use transform="translate(74.719801 0)scale(0.996264)" xlink:href="#URWPalladioL-Roma-37"/>
       <use transform="translate(124.533001 0)scale(0.996264)" xlink:href="#URWPalladioL-Roma-35"/>
      </g>
     </g>
    </g>
    <g id="xtick_5">
     <g id="line2d_5">
      <g>
       <use style="stroke:#000000;stroke-width:0.8;" x="249.891219" xlink:href="#m745a3cd987" y="286.215774"/>
      </g>
     </g>
     <g id="text_5">
      <!-- $\mathdefault{1.00}$ -->
      <g transform="translate(236.815254 303.908131)scale(0.15 -0.15)">
       <defs>
        <path d="M 429 3584 
L 493 3584 
L 1318 3956 
C 1325 3962 1331 3962 1338 3962 
C 1376 3962 1389 3905 1389 3751 
L 1389 613 
C 1389 276 1318 205 973 205 
L 614 205 
L 614 0 
C 1600 0 1600 0 1670 0 
C 1754 0 1894 0 2112 0 
C 2189 0 2413 0 2675 0 
L 2675 205 
L 2342 205 
C 1990 205 1926 276 1926 612 
L 1926 4443 
L 1837 4475 
C 1421 4257 966 4065 384 3860 
L 429 3584 
z
" id="URWPalladioL-Roma-31" transform="scale(0.015625)"/>
       </defs>
       <use transform="scale(0.996264)" xlink:href="#URWPalladioL-Roma-31"/>
       <use transform="translate(49.8132 0)scale(0.996264)" xlink:href="#URWPalladioL-Roma-2e"/>
       <use transform="translate(74.719801 0)scale(0.996264)" xlink:href="#URWPalladioL-Roma-30"/>
       <use transform="translate(124.533001 0)scale(0.996264)" xlink:href="#URWPalladioL-Roma-30"/>
      </g>
     </g>
    </g>
    <g id="xtick_6">
     <g id="line2d_6">
      <g>
       <use style="stroke:#000000;stroke-width:0.8;" x="295.299423" xlink:href="#m745a3cd987" y="286.215774"/>
      </g>
     </g>
     <g id="text_6">
      <!-- $\mathdefault{1.25}$ -->
      <g transform="translate(282.223458 303.908131)scale(0.15 -0.15)">
       <use transform="scale(0.996264)" xlink:href="#URWPalladioL-Roma-31"/>
       <use transform="translate(49.8132 0)scale(0.996264)" xlink:href="#URWPalladioL-Roma-2e"/>
       <use transform="translate(74.719801 0)scale(0.996264)" xlink:href="#URWPalladioL-Roma-32"/>
       <use transform="translate(124.533001 0)scale(0.996264)" xlink:href="#URWPalladioL-Roma-35"/>
      </g>
     </g>
    </g>
    <g id="xtick_7">
     <g id="line2d_7">
      <g>
       <use style="stroke:#000000;stroke-width:0.8;" x="340.707627" xlink:href="#m745a3cd987" y="286.215774"/>
      </g>
     </g>
     <g id="text_7">
      <!-- $\mathdefault{1.50}$ -->
      <g transform="translate(327.631662 303.908131)scale(0.15 -0.15)">
       <use transform="scale(0.996264)" xlink:href="#URWPalladioL-Roma-31"/>
       <use transform="translate(49.8132 0)scale(0.996264)" xlink:href="#URWPalladioL-Roma-2e"/>
       <use transform="translate(74.719801 0)scale(0.996264)" xlink:href="#URWPalladioL-Roma-35"/>
       <use transform="translate(124.533001 0)scale(0.996264)" xlink:href="#URWPalladioL-Roma-30"/>
      </g>
     </g>
    </g>
    <g id="xtick_8">
     <g id="line2d_8">
      <g>
       <use style="stroke:#000000;stroke-width:0.8;" x="386.115831" xlink:href="#m745a3cd987" y="286.215774"/>
      </g>
     </g>
     <g id="text_8">
      <!-- $\mathdefault{1.75}$ -->
      <g transform="translate(373.039866 303.908131)scale(0.15 -0.15)">
       <use transform="scale(0.996264)" xlink:href="#URWPalladioL-Roma-31"/>
       <use transform="translate(49.8132 0)scale(0.996264)" xlink:href="#URWPalladioL-Roma-2e"/>
       <use transform="translate(74.719801 0)scale(0.996264)" xlink:href="#URWPalladioL-Roma-37"/>
       <use transform="translate(124.533001 0)scale(0.996264)" xlink:href="#URWPalladioL-Roma-35"/>
      </g>
     </g>
    </g>
    <g id="xtick_9">
     <g id="line2d_9">
      <g>
       <use style="stroke:#000000;stroke-width:0.8;" x="431.524035" xlink:href="#m745a3cd987" y="286.215774"/>
      </g>
     </g>
     <g id="text_9">
      <!-- $\mathdefault{2.00}$ -->
      <g transform="translate(418.44807 303.908131)scale(0.15 -0.15)">
       <use transform="scale(0.996264)" xlink:href="#URWPalladioL-Roma-32"/>
       <use transform="translate(49.8132 0)scale(0.996264)" xlink:href="#URWPalladioL-Roma-2e"/>
       <use transform="translate(74.719801 0)scale(0.996264)" xlink:href="#URWPalladioL-Roma-30"/>
       <use transform="translate(124.533001 0)scale(0.996264)" xlink:href="#URWPalladioL-Roma-30"/>
      </g>
     </g>
    </g>
    <g id="text_10">
     <!-- Time [$k_B T / (\pi \eta d^3)$] -->
     <g transform="translate(186.027049 325.185884)scale(0.15 -0.15)">
      <defs>
       <path d="M 1632 4114 
C 1651 3896 1658 3749 1658 3473 
L 1658 763 
C 1658 256 1626 205 1331 205 
L 1024 205 
L 1024 0 
C 1402 0 1626 0 1958 0 
C 2291 0 2522 0 2899 0 
L 2899 205 
L 2592 205 
C 2298 205 2266 256 2266 763 
L 2266 3473 
C 2266 3762 2272 3903 2291 4114 
L 3283 4114 
C 3462 4114 3533 4057 3539 3904 
L 3565 3400 
L 3763 3400 
C 3763 3810 3776 4056 3808 4416 
C 3347 4416 3136 4416 2957 4416 
C 2707 4416 2522 4416 2426 4416 
L 1414 4416 
C 1350 4416 1005 4416 550 4416 
L 115 4416 
C 147 4056 160 3810 160 3400 
L 358 3400 
L 384 3904 
C 390 4057 461 4114 640 4114 
L 1632 4114 
z
" id="URWPalladioL-Roma-54" transform="scale(0.015625)"/>
       <path d="M 1203 2993 
L 1146 3019 
C 819 2884 486 2793 147 2755 
L 147 2576 
L 384 2576 
C 640 2576 666 2531 666 2105 
L 666 651 
C 666 244 646 199 429 199 
L 134 199 
L 134 0 
C 774 0 774 0 934 0 
C 1094 0 1094 0 1734 0 
L 1734 199 
L 1440 199 
C 1222 199 1203 244 1203 651 
L 1203 2993 
z
M 909 4416 
C 717 4416 550 4249 550 4056 
C 550 3870 717 3704 902 3704 
C 1088 3704 1261 3870 1261 4056 
C 1261 4236 1088 4416 909 4416 
z
" id="URWPalladioL-Roma-69" transform="scale(0.015625)"/>
       <path d="M 115 2565 
L 352 2565 
C 608 2565 634 2520 634 2094 
L 634 643 
C 634 237 614 192 397 192 
L 102 192 
L 102 -7 
C 717 -7 736 -7 915 -7 
C 1094 -7 1261 -7 1677 -7 
L 1677 179 
L 1408 205 
C 1190 205 1171 250 1171 654 
L 1171 2014 
C 1171 2302 1594 2616 1978 2616 
C 2323 2616 2560 2287 2560 1798 
L 2560 643 
C 2560 237 2541 192 2323 192 
L 2029 192 
L 2029 -7 
C 2669 -7 2669 -7 2829 -7 
C 2989 -7 2989 -7 3629 -7 
L 3629 192 
L 3334 192 
C 3117 192 3098 237 3098 643 
L 3098 2011 
C 3098 2300 3520 2616 3904 2616 
C 4250 2616 4486 2291 4486 1806 
L 4486 -7 
C 4877 -7 4883 -7 4992 -7 
C 5075 -7 5075 -7 5562 -7 
L 5562 192 
L 5261 192 
C 5043 192 5024 237 5024 643 
L 5024 1970 
C 5024 2608 4653 3008 4064 3008 
C 3840 3008 3654 2950 3539 2847 
L 3053 2412 
C 2848 2834 2586 3008 2144 3008 
C 1907 3008 1728 2950 1613 2847 
L 1171 2437 
L 1171 2982 
L 1114 3008 
C 787 2873 454 2783 115 2745 
L 115 2565 
z
" id="URWPalladioL-Roma-6d" transform="scale(0.015625)"/>
       <path d="M 2797 447 
L 2714 511 
C 2304 269 2157 212 1882 212 
C 1466 212 1120 398 941 711 
C 819 921 774 1101 762 1472 
L 1696 1472 
C 2138 1472 2413 1472 2854 1544 
C 2861 1634 2867 1693 2867 1771 
C 2867 2520 2394 3008 1677 3008 
C 1440 3008 1165 2924 902 2770 
C 378 2469 166 2071 166 1404 
C 166 1000 262 654 435 410 
C 691 71 1120 -128 1600 -128 
C 1837 -128 2074 -77 2336 37 
C 2509 108 2643 191 2669 230 
L 2797 447 
z
M 2298 1690 
C 1965 1690 1811 1690 1581 1690 
C 1286 1690 1120 1690 774 1722 
C 774 2027 800 2169 883 2337 
C 1018 2622 1293 2796 1600 2796 
C 1811 2796 1978 2711 2093 2534 
C 2234 2319 2278 2129 2298 1690 
z
" id="URWPalladioL-Roma-65" transform="scale(0.015625)"/>
       <path d="M 563 -1152 
C 1018 -1152 1030 -1152 1184 -1152 
C 1338 -1152 1370 -1152 1805 -1152 
L 1843 -1120 
L 1843 -953 
L 1818 -921 
L 1574 -921 
C 1402 -921 1261 -882 1184 -818 
C 1126 -760 1107 -671 1107 -459 
C 1107 -453 1107 -318 1101 -125 
L 1101 112 
L 1101 3409 
L 1101 3646 
C 1107 3826 1107 3967 1107 3973 
C 1107 4185 1126 4281 1184 4339 
C 1261 4403 1402 4441 1574 4441 
L 1818 4441 
L 1843 4473 
L 1843 4640 
L 1805 4672 
C 1357 4672 1338 4672 1184 4672 
C 1037 4672 1005 4672 563 4672 
L 506 4595 
C 544 4435 557 4223 557 3730 
C 557 3633 557 3556 563 3492 
L 563 3409 
L 563 112 
L 563 28 
C 557 -74 557 -81 557 -190 
L 557 -260 
C 557 -696 544 -876 506 -1075 
L 563 -1152 
z
" id="URWPalladioL-Roma-5b" transform="scale(0.015625)"/>
       <path d="M 1498 4587 
L 1421 4657 
C 1088 4492 858 4434 397 4390 
L 371 4256 
L 678 4256 
C 832 4256 896 4211 896 4103 
C 896 4052 890 3995 883 3950 
L 576 2245 
C 486 1768 384 1329 51 -1 
L 109 -64 
L 538 44 
L 685 836 
C 742 1143 896 1430 1114 1648 
C 1555 370 1760 -64 1920 -64 
C 2003 -64 2157 18 2438 217 
L 2733 421 
L 2682 542 
L 2406 389 
C 2317 338 2272 325 2221 325 
C 2157 325 2112 364 2054 472 
C 1830 881 1690 1226 1440 2012 
L 1530 2101 
C 1920 2492 2214 2651 2534 2651 
C 2586 2651 2656 2638 2765 2613 
L 2874 3015 
C 2758 3053 2643 3072 2566 3072 
C 2144 3072 1613 2580 813 1462 
L 1498 4587 
z
" id="URWPalladioL-Ital-6b" transform="scale(0.015625)"/>
       <path d="M 621 4205 
L 960 4205 
C 1114 4205 1184 4154 1184 4038 
C 1184 3949 1158 3744 1126 3552 
L 570 327 
C 544 211 467 166 198 122 
L 166 -45 
L 403 -45 
C 576 -45 672 -45 749 -45 
C 819 -45 986 -45 1152 -45 
L 1389 -45 
L 1517 -45 
C 1638 -45 1722 -64 1773 -64 
C 2080 -64 2387 25 2688 203 
C 3194 503 3475 935 3475 1420 
C 3475 1694 3386 1903 3213 2043 
C 3046 2177 2854 2234 2413 2298 
C 2778 2426 2938 2503 3136 2682 
C 3430 2931 3578 3233 3578 3559 
C 3578 4083 3206 4390 2566 4390 
C 2554 4390 2490 4390 2394 4390 
L 1990 4390 
C 1914 4390 1683 4390 1606 4390 
C 1485 4390 1286 4390 973 4390 
L 640 4390 
L 621 4205 
z
M 1389 2139 
L 1933 2139 
C 2592 2139 2912 1871 2912 1318 
C 2912 662 2445 191 1805 191 
C 1677 191 1491 191 1280 214 
C 1242 222 1165 229 1062 229 
L 1389 2139 
z
M 1741 4128 
C 1811 4128 1824 4135 1958 4141 
C 2093 4154 2176 4160 2253 4160 
C 2771 4160 3027 3929 3027 3447 
C 3027 2773 2554 2368 1760 2368 
L 1427 2368 
L 1741 4128 
z
" id="URWPalladioL-Ital-42" transform="scale(0.015625)"/>
       <path d="M 2496 4136 
L 2963 4136 
C 3462 4136 3693 4104 3712 4028 
C 3731 3977 3744 3855 3738 3791 
L 3712 3383 
L 3891 3383 
L 4064 4416 
L 3482 4416 
C 2918 4416 2483 4416 2259 4416 
C 2022 4416 1613 4416 1062 4416 
L 454 4416 
L 339 3383 
L 525 3383 
L 621 3766 
C 653 3907 698 4009 736 4053 
C 774 4098 1018 4136 1254 4136 
L 1971 4136 
L 1421 801 
C 1318 218 1306 199 1050 179 
L 723 179 
L 698 0 
L 1062 0 
C 1318 0 1504 0 1606 0 
C 1728 0 1926 0 2176 0 
L 2458 0 
L 2477 179 
L 2099 179 
C 1933 179 1869 230 1869 365 
C 1869 423 1875 468 1894 590 
L 2496 4136 
z
" id="URWPalladioL-Ital-54" transform="scale(0.015625)"/>
       <path d="M 3322 4640 
L 2938 4640 
L 557 -768 
L 941 -768 
L 3322 4640 
z
" id="URWPalladioL-Roma-2f" transform="scale(0.015625)"/>
       <path d="M 2118 -1536 
C 2118 -1517 2118 -1504 2010 -1395 
C 1210 -584 1005 632 1005 1616 
C 1005 2735 1248 3855 2035 4658 
C 2118 4735 2118 4748 2118 4767 
C 2118 4812 2093 4832 2054 4832 
C 1990 4832 1414 4395 1037 3577 
C 710 2870 634 2156 634 1616 
C 634 1114 704 336 1056 -391 
C 1440 -1182 1990 -1600 2054 -1600 
C 2093 -1600 2118 -1581 2118 -1536 
z
" id="CMR10-28" transform="scale(0.015625)"/>
       <path d="M 614 2277 
L 672 2322 
C 806 2701 1062 2720 1427 2720 
C 1504 2720 1619 2720 1754 2720 
C 1216 1254 973 810 454 -6 
L 512 -64 
L 986 101 
C 1216 599 1606 1567 1958 2688 
L 3149 2688 
C 3040 2286 2669 1115 2669 701 
C 2669 21 2912 -64 3110 -64 
C 3437 -64 3622 20 4026 360 
L 3974 482 
L 3821 372 
C 3840 385 3654 238 3546 238 
C 3245 238 3155 425 3155 823 
C 3155 984 3168 1157 3206 1344 
C 3315 1878 3424 2405 3482 2669 
C 3629 2669 3776 2669 3923 2688 
C 4038 2688 4179 2754 4282 2793 
C 4352 2930 4378 2943 4499 3099 
L 4454 3176 
C 4282 3118 3994 3054 3782 3054 
C 3706 3067 3546 3067 3386 3067 
C 2701 3067 1645 3067 1363 3067 
C 883 3067 710 2864 525 2328 
L 614 2277 
z
" id="PazoMath-Italic-70" transform="scale(0.015625)"/>
       <path d="M 154 2523 
L 198 2392 
L 486 2578 
C 614 2662 666 2688 704 2688 
C 774 2688 819 2623 819 2527 
C 819 2193 557 965 294 40 
L 339 -31 
C 499 14 646 53 787 78 
C 909 888 1043 1306 1338 1756 
C 1690 2289 2163 2688 2451 2688 
C 2522 2688 2560 2636 2560 2533 
C 2560 2411 2541 2289 2490 2077 
L 1613 -1406 
C 1581 -1509 1523 -1593 1472 -1657 
L 1530 -1747 
C 1728 -1695 1926 -1657 2080 -1637 
C 2093 -1451 2106 -1328 2144 -1174 
L 3008 2433 
C 3066 2621 3091 2788 3091 2910 
C 3091 3052 3021 3136 2899 3136 
C 2630 3136 2202 2902 1830 2553 
C 1581 2326 1389 2093 1050 1614 
L 1293 2657 
C 1318 2779 1331 2851 1331 2922 
C 1331 3058 1280 3136 1184 3136 
C 1050 3136 806 2999 333 2653 
L 154 2523 
z
" id="PazoMath-Italic-68" transform="scale(0.015625)"/>
       <path d="M 3091 4619 
L 3014 4689 
C 2682 4524 2451 4466 1990 4422 
L 1965 4288 
L 2272 4288 
C 2426 4288 2490 4242 2490 4133 
C 2490 4081 2483 4023 2477 3978 
L 2298 2983 
C 2106 3040 1933 3072 1773 3072 
C 1331 3072 730 2614 435 2060 
C 237 1692 109 1087 109 553 
C 109 140 205 -64 390 -64 
C 563 -64 800 44 1018 215 
C 1363 496 1574 743 2003 1386 
L 1856 802 
C 1786 520 1754 315 1754 147 
C 1754 13 1811 -64 1920 -64 
C 2029 -64 2182 13 2400 175 
L 2918 565 
L 2854 686 
L 2573 489 
C 2483 426 2381 381 2323 381 
C 2272 381 2234 438 2234 528 
C 2234 580 2240 637 2285 822 
L 3091 4619 
z
M 2157 2239 
C 2042 1679 1728 1119 1331 743 
C 1107 534 851 381 730 381 
C 627 381 570 470 570 629 
C 570 1431 864 2423 1178 2664 
C 1261 2728 1382 2760 1555 2760 
C 1837 2760 2022 2721 2234 2614 
L 2157 2239 
z
" id="URWPalladioL-Ital-64" transform="scale(0.015625)"/>
       <path d="M 275 3197 
L 474 3197 
L 589 3554 
C 659 3770 1062 3987 1395 3987 
C 1811 3987 2150 3649 2150 3248 
C 2150 2770 1773 2368 1318 2368 
C 1267 2368 1197 2368 1114 2381 
L 1018 2381 
L 941 2047 
L 986 2008 
C 1229 2118 1350 2150 1523 2150 
C 2054 2150 2362 1809 2362 1222 
C 2362 566 1971 135 1376 135 
C 1082 135 819 231 627 411 
C 474 553 390 701 269 1049 
L 96 985 
C 230 593 282 361 320 39 
C 659 -77 941 -128 1178 -128 
C 1690 -128 2278 161 2630 593 
C 2848 857 2957 1140 2957 1442 
C 2957 1751 2829 2022 2598 2182 
C 2438 2298 2291 2350 1971 2407 
C 2483 2803 2675 3096 2675 3472 
C 2675 4040 2202 4416 1491 4416 
C 1056 4416 768 4295 461 3989 
L 275 3197 
z
" id="URWPalladioL-Roma-33" transform="scale(0.015625)"/>
       <path d="M 1850 1616 
C 1850 2118 1779 2896 1427 3622 
C 1043 4414 493 4832 429 4832 
C 390 4832 365 4806 365 4767 
C 365 4748 365 4735 486 4620 
C 1114 3983 1478 2960 1478 1616 
C 1478 516 1242 -617 448 -1427 
C 365 -1504 365 -1517 365 -1536 
C 365 -1575 390 -1600 429 -1600 
C 493 -1600 1069 -1163 1446 -346 
C 1773 362 1850 1075 1850 1616 
z
" id="CMR10-29" transform="scale(0.015625)"/>
       <path d="M 1568 4672 
C 1114 4672 1094 4672 947 4672 
C 794 4672 762 4672 326 4672 
L 288 4640 
L 288 4473 
L 314 4441 
L 557 4441 
C 730 4441 864 4403 941 4339 
C 1005 4281 1024 4191 1024 3973 
C 1024 3954 1024 3826 1030 3646 
L 1030 3409 
L 1030 112 
L 1030 -125 
C 1024 -311 1024 -427 1024 -446 
C 1024 -664 1005 -760 941 -818 
C 864 -882 730 -921 557 -921 
L 314 -921 
L 288 -953 
L 288 -1120 
L 326 -1152 
C 774 -1152 787 -1152 947 -1152 
C 1094 -1152 1126 -1152 1568 -1152 
L 1626 -1075 
C 1587 -921 1581 -722 1574 -228 
C 1574 -138 1574 -55 1568 28 
L 1568 112 
L 1568 3409 
L 1568 3492 
C 1574 3563 1574 3646 1574 3736 
C 1574 4230 1587 4441 1626 4595 
L 1568 4672 
z
" id="URWPalladioL-Roma-5d" transform="scale(0.015625)"/>
      </defs>
      <use transform="scale(0.996264)" xlink:href="#URWPalladioL-Roma-54"/>
      <use transform="translate(55.591109 0)scale(0.996264)" xlink:href="#URWPalladioL-Roma-69"/>
      <use transform="translate(84.581471 0)scale(0.996264)" xlink:href="#URWPalladioL-Roma-6d"/>
      <use transform="translate(172.551145 0)scale(0.996264)" xlink:href="#URWPalladioL-Roma-65"/>
      <use transform="translate(245.17804 0)scale(0.996264)" xlink:href="#URWPalladioL-Roma-5b"/>
      <use transform="translate(279.59857 0)scale(0.996264)" xlink:href="#URWPalladioL-Ital-6b"/>
      <use transform="translate(329.03323 -18.085743)scale(0.757155)" xlink:href="#URWPalladioL-Ital-42"/>
      <use transform="translate(379.28029 0)scale(0.996264)" xlink:href="#URWPalladioL-Ital-54"/>
      <use transform="translate(445.032742 0)scale(0.996264)" xlink:href="#URWPalladioL-Roma-2f"/>
      <use transform="translate(507.896946 0)scale(1.038107)" xlink:href="#CMR10-28"/>
      <use transform="translate(550.636651 0)scale(0.996264)" xlink:href="#PazoMath-Italic-70"/>
      <use transform="translate(623.163579 0)scale(0.996264)" xlink:href="#PazoMath-Italic-68"/>
      <use transform="translate(680.548392 0)scale(0.996264)" xlink:href="#URWPalladioL-Ital-64"/>
      <use transform="translate(731.606907 36.164371)scale(0.757155)" xlink:href="#URWPalladioL-Roma-33"/>
      <use transform="translate(771.208098 0)scale(1.038107)" xlink:href="#CMR10-29"/>
      <use transform="translate(812.702503 0)scale(0.996264)" xlink:href="#URWPalladioL-Roma-5d"/>
     </g>
    </g>
   </g>
   <g id="matplotlib.axis_2">
    <g id="ytick_1">
     <g id="line2d_10">
      <defs>
       <path d="M 0 0 
L -3.5 0 
" id="mf32e7650f6" style="stroke:#000000;stroke-width:0.8;"/>
      </defs>
      <g>
       <use style="stroke:#000000;stroke-width:0.8;" x="68.258403" xlink:href="#mf32e7650f6" y="286.215774"/>
      </g>
     </g>
     <g id="text_11">
      <!-- $\mathdefault{0.00}$ -->
      <g transform="translate(35.106473 291.561952)scale(0.15 -0.15)">
       <use transform="scale(0.996264)" xlink:href="#URWPalladioL-Roma-30"/>
       <use transform="translate(49.8132 0)scale(0.996264)" xlink:href="#URWPalladioL-Roma-2e"/>
       <use transform="translate(74.719801 0)scale(0.996264)" xlink:href="#URWPalladioL-Roma-30"/>
       <use transform="translate(124.533001 0)scale(0.996264)" xlink:href="#URWPalladioL-Roma-30"/>
      </g>
     </g>
    </g>
    <g id="ytick_2">
     <g id="line2d_11">
      <g>
       <use style="stroke:#000000;stroke-width:0.8;" x="68.258403" xlink:href="#mf32e7650f6" y="237.998672"/>
      </g>
     </g>
     <g id="text_12">
      <!-- $\mathdefault{0.05}$ -->
      <g transform="translate(35.106473 243.34485)scale(0.15 -0.15)">
       <use transform="scale(0.996264)" xlink:href="#URWPalladioL-Roma-30"/>
       <use transform="translate(49.8132 0)scale(0.996264)" xlink:href="#URWPalladioL-Roma-2e"/>
       <use transform="translate(74.719801 0)scale(0.996264)" xlink:href="#URWPalladioL-Roma-30"/>
       <use transform="translate(124.533001 0)scale(0.996264)" xlink:href="#URWPalladioL-Roma-35"/>
      </g>
     </g>
    </g>
    <g id="ytick_3">
     <g id="line2d_12">
      <g>
       <use style="stroke:#000000;stroke-width:0.8;" x="68.258403" xlink:href="#mf32e7650f6" y="189.781569"/>
      </g>
     </g>
     <g id="text_13">
      <!-- $\mathdefault{0.10}$ -->
      <g transform="translate(35.106473 195.127747)scale(0.15 -0.15)">
       <use transform="scale(0.996264)" xlink:href="#URWPalladioL-Roma-30"/>
       <use transform="translate(49.8132 0)scale(0.996264)" xlink:href="#URWPalladioL-Roma-2e"/>
       <use transform="translate(74.719801 0)scale(0.996264)" xlink:href="#URWPalladioL-Roma-31"/>
       <use transform="translate(124.533001 0)scale(0.996264)" xlink:href="#URWPalladioL-Roma-30"/>
      </g>
     </g>
    </g>
    <g id="ytick_4">
     <g id="line2d_13">
      <g>
       <use style="stroke:#000000;stroke-width:0.8;" x="68.258403" xlink:href="#mf32e7650f6" y="141.564467"/>
      </g>
     </g>
     <g id="text_14">
      <!-- $\mathdefault{0.15}$ -->
      <g transform="translate(35.106473 146.910645)scale(0.15 -0.15)">
       <use transform="scale(0.996264)" xlink:href="#URWPalladioL-Roma-30"/>
       <use transform="translate(49.8132 0)scale(0.996264)" xlink:href="#URWPalladioL-Roma-2e"/>
       <use transform="translate(74.719801 0)scale(0.996264)" xlink:href="#URWPalladioL-Roma-31"/>
       <use transform="translate(124.533001 0)scale(0.996264)" xlink:href="#URWPalladioL-Roma-35"/>
      </g>
     </g>
    </g>
    <g id="ytick_5">
     <g id="line2d_14">
      <g>
       <use style="stroke:#000000;stroke-width:0.8;" x="68.258403" xlink:href="#mf32e7650f6" y="93.347364"/>
      </g>
     </g>
     <g id="text_15">
      <!-- $\mathdefault{0.20}$ -->
      <g transform="translate(35.106473 98.693542)scale(0.15 -0.15)">
       <use transform="scale(0.996264)" xlink:href="#URWPalladioL-Roma-30"/>
       <use transform="translate(49.8132 0)scale(0.996264)" xlink:href="#URWPalladioL-Roma-2e"/>
       <use transform="translate(74.719801 0)scale(0.996264)" xlink:href="#URWPalladioL-Roma-32"/>
       <use transform="translate(124.533001 0)scale(0.996264)" xlink:href="#URWPalladioL-Roma-30"/>
      </g>
     </g>
    </g>
    <g id="ytick_6">
     <g id="line2d_15">
      <g>
       <use style="stroke:#000000;stroke-width:0.8;" x="68.258403" xlink:href="#mf32e7650f6" y="45.130262"/>
      </g>
     </g>
     <g id="text_16">
      <!-- $\mathdefault{0.25}$ -->
      <g transform="translate(35.106473 50.47644)scale(0.15 -0.15)">
       <use transform="scale(0.996264)" xlink:href="#URWPalladioL-Roma-30"/>
       <use transform="translate(49.8132 0)scale(0.996264)" xlink:href="#URWPalladioL-Roma-2e"/>
       <use transform="translate(74.719801 0)scale(0.996264)" xlink:href="#URWPalladioL-Roma-32"/>
       <use transform="translate(124.533001 0)scale(0.996264)" xlink:href="#URWPalladioL-Roma-35"/>
      </g>
     </g>
    </g>
    <g id="text_17">
     <!-- Modified rotation variance -->
     <g transform="translate(26.892356 239.66769)rotate(-90)scale(0.15 -0.15)">
      <defs>
       <path d="M 4685 783 
C 4685 276 4659 231 4358 205 
L 4141 186 
L 4141 0 
C 4435 0 4627 0 4960 0 
C 5318 0 5549 0 5926 0 
L 5926 205 
L 5619 205 
C 5325 205 5293 256 5293 766 
L 5293 3663 
C 5293 4166 5325 4224 5619 4224 
L 5888 4256 
L 5888 4436 
C 5402 4436 5402 4436 5293 4436 
C 5197 4436 5197 4436 4685 4436 
L 3008 884 
L 1318 4436 
C 806 4436 806 4436 710 4436 
C 614 4436 614 4436 102 4436 
L 102 4237 
L 384 4237 
C 678 4237 710 4178 710 3674 
L 710 768 
C 710 263 678 205 384 205 
L 102 205 
L 102 0 
C 736 0 736 0 845 0 
C 941 0 941 0 1613 0 
L 1613 205 
L 1331 205 
C 1037 205 1005 262 1005 766 
L 1005 3718 
L 2790 -64 
L 2918 -64 
C 2963 32 3002 134 3040 230 
C 3142 480 3219 658 3264 748 
L 4403 3167 
C 4493 3353 4570 3500 4685 3718 
L 4685 783 
z
" id="URWPalladioL-Roma-4d" transform="scale(0.015625)"/>
       <path d="M 1786 3008 
C 851 3008 205 2347 205 1392 
C 205 487 774 -128 1600 -128 
C 2586 -128 3290 558 3290 1520 
C 3290 2386 2662 3008 1786 3008 
z
M 1670 2796 
C 2259 2796 2694 2155 2694 1283 
C 2694 545 2368 83 1850 83 
C 1222 83 800 699 800 1610 
C 800 2379 1107 2796 1670 2796 
z
" id="URWPalladioL-Roma-6f" transform="scale(0.015625)"/>
       <path d="M 2637 2802 
C 2278 2956 2099 3008 1875 3008 
C 1702 3008 1549 2969 1389 2887 
L 826 2593 
C 461 2401 224 1935 224 1392 
C 224 881 397 460 710 204 
C 928 19 1229 -64 1645 -64 
C 1773 -64 1920 -38 1952 -13 
L 2662 583 
L 2630 -7 
C 2944 -7 3046 -7 3123 -7 
C 3174 -7 3264 -7 3398 -7 
C 3443 -7 3571 -7 3706 -7 
L 3706 192 
L 3411 192 
C 3194 192 3174 237 3174 643 
L 3174 4607 
L 3117 4659 
C 2835 4550 2624 4498 2118 4421 
L 2118 4242 
L 2477 4242 
C 2592 4242 2637 4171 2637 3978 
L 2637 2802 
z
M 2637 1424 
C 2637 1009 2624 946 2541 799 
C 2362 499 2048 302 1747 302 
C 1184 302 781 844 781 1603 
C 781 2298 1126 2706 1702 2706 
C 1946 2706 2202 2623 2426 2470 
C 2560 2381 2637 2298 2637 2246 
L 2637 1424 
z
" id="URWPalladioL-Roma-64" transform="scale(0.015625)"/>
       <path d="M 2182 4603 
C 2048 4653 1971 4672 1888 4672 
C 1683 4672 1459 4563 1318 4404 
L 947 3985 
C 762 3775 678 3490 678 3070 
L 678 2803 
L 237 2604 
L 237 2476 
L 678 2476 
L 678 651 
C 678 244 659 199 442 199 
L 147 199 
L 147 0 
C 787 0 787 0 954 0 
C 1107 0 1286 0 1786 0 
L 1786 199 
L 1453 199 
C 1235 199 1216 245 1216 653 
L 1216 2489 
L 1946 2489 
L 1990 2816 
L 1216 2816 
L 1216 3350 
C 1216 4073 1299 4248 1664 4248 
C 1837 4248 1952 4204 2106 4071 
L 2182 4109 
L 2182 4603 
z
M 3226 2981 
L 3168 3026 
C 2886 2886 2547 2797 2170 2752 
L 2170 2572 
L 2406 2572 
C 2662 2572 2688 2527 2688 2099 
L 2688 653 
C 2688 244 2669 199 2451 199 
L 2157 199 
L 2157 0 
C 2797 0 2797 0 2957 0 
C 3117 0 3117 0 3757 0 
L 3757 199 
L 3462 199 
C 3245 199 3226 244 3226 652 
L 3226 2981 
z
M 2989 4416 
C 2797 4416 2630 4249 2630 4056 
C 2630 3870 2797 3704 2982 3704 
C 3168 3704 3341 3870 3341 4056 
C 3341 4236 3168 4416 2989 4416 
z
" id="URWPalladioL-Roma-2" transform="scale(0.015625)"/>
       <path d="M 147 2565 
L 384 2565 
C 640 2565 666 2520 666 2094 
L 666 643 
C 666 237 646 192 429 192 
L 134 192 
L 134 -7 
C 595 -7 762 -7 922 -7 
C 1050 -7 1050 -7 1837 -7 
L 1837 192 
L 1504 192 
C 1216 192 1203 211 1203 638 
L 1203 1751 
C 1203 2139 1459 2463 1773 2463 
C 1965 2463 2099 2373 2202 2169 
L 2336 2169 
L 2394 2937 
C 2323 2982 2208 3008 2093 3008 
C 1901 3008 1696 2905 1562 2745 
L 1203 2322 
L 1203 2982 
L 1146 3008 
C 819 2873 486 2783 147 2745 
L 147 2565 
z
" id="URWPalladioL-Roma-72" transform="scale(0.015625)"/>
       <path d="M 627 2476 
L 627 619 
C 627 142 838 -64 1331 -64 
C 1478 -64 1632 -32 1670 13 
L 1978 353 
L 1894 463 
C 1734 372 1638 340 1517 340 
C 1267 340 1165 470 1165 788 
L 1165 2489 
L 1984 2489 
L 2042 2816 
L 1165 2816 
L 1165 3056 
C 1165 3321 1184 3547 1235 3951 
L 1158 4021 
C 1005 3925 813 3842 614 3778 
C 634 3585 640 3463 640 3271 
L 640 2822 
L 141 2598 
L 141 2476 
L 627 2476 
z
" id="URWPalladioL-Roma-74" transform="scale(0.015625)"/>
       <path d="M 2074 538 
L 2042 -1 
C 2458 -1 2458 -1 2541 -1 
C 2573 -1 2733 -1 3014 -1 
L 3014 192 
L 2765 192 
C 2611 192 2586 244 2586 558 
L 2586 1731 
C 2586 2668 2317 3008 1574 3008 
C 1299 3008 1043 2937 800 2791 
L 461 2585 
L 461 2171 
L 627 2126 
L 710 2323 
C 845 2623 909 2668 1203 2668 
C 1805 2668 2054 2431 2074 1852 
L 1440 1736 
C 570 1577 205 1277 205 722 
C 205 224 506 -64 1011 -64 
C 1126 -64 1235 -45 1280 -13 
L 2074 538 
z
M 2074 806 
C 1888 544 1485 302 1235 302 
C 979 302 755 538 755 812 
C 755 1048 883 1271 1075 1392 
C 1235 1488 1587 1577 2074 1648 
L 2074 806 
z
" id="URWPalladioL-Roma-61" transform="scale(0.015625)"/>
       <path d="M 2624 -7 
C 3014 -7 3021 -7 3130 -7 
C 3219 -7 3219 -7 3661 -7 
L 3661 179 
L 3398 205 
C 3181 205 3162 244 3162 654 
L 3162 1892 
C 3162 2642 2810 3008 2093 3008 
C 1856 3008 1722 2963 1587 2847 
L 1101 2424 
L 1101 2982 
L 1043 3008 
C 717 2873 384 2783 45 2745 
L 45 2565 
L 282 2565 
C 538 2565 563 2520 563 2094 
L 563 643 
C 563 237 544 192 326 192 
L 38 192 
L 38 -7 
C 474 -7 646 -7 832 -7 
C 1018 -7 1190 -7 1626 -7 
L 1626 192 
L 1338 192 
C 1120 192 1101 237 1101 643 
L 1101 2011 
C 1101 2300 1523 2616 1914 2616 
C 2342 2616 2624 2297 2624 1806 
L 2624 -7 
z
" id="URWPalladioL-Roma-6e" transform="scale(0.015625)"/>
       <path d="M 3450 2752 
L 3450 2932 
C 3066 2932 2950 2932 2848 2932 
C 2746 2932 2630 2932 2246 2932 
L 2246 2752 
L 2509 2752 
C 2611 2752 2662 2694 2662 2591 
C 2662 2489 2618 2317 2541 2124 
L 2272 1445 
C 2195 1259 2118 1080 1875 549 
L 1114 2393 
C 1075 2482 1056 2566 1056 2636 
C 1056 2707 1114 2752 1216 2752 
L 1530 2752 
L 1530 2932 
C 902 2932 902 2932 781 2932 
C 659 2932 352 2932 38 2932 
L 38 2752 
L 256 2752 
C 352 2739 384 2701 454 2541 
L 1555 -32 
L 1875 -32 
C 1914 77 1978 243 1978 256 
C 2048 447 2131 664 2138 664 
L 2893 2324 
C 3034 2625 3123 2739 3251 2752 
L 3450 2752 
z
" id="URWPalladioL-Roma-76" transform="scale(0.015625)"/>
       <path d="M 2554 1994 
C 2554 2289 2586 2552 2643 2783 
C 2387 2937 2163 3008 1901 3008 
C 1594 3008 1235 2886 851 2642 
C 403 2360 166 1911 166 1347 
C 166 481 774 -128 1632 -128 
C 1965 -128 2445 -6 2509 90 
L 2643 295 
L 2579 391 
C 2342 263 2138 205 1907 205 
C 1197 205 730 757 730 1603 
C 730 2289 1050 2674 1626 2674 
C 1907 2674 2214 2546 2330 2386 
L 2374 1994 
L 2554 1994 
z
" id="URWPalladioL-Roma-63" transform="scale(0.015625)"/>
      </defs>
      <use transform="scale(0.996264)" xlink:href="#URWPalladioL-Roma-4d"/>
      <use transform="translate(94.246201 0)scale(0.996264)" xlink:href="#URWPalladioL-Roma-6f"/>
      <use transform="translate(148.641782 0)scale(0.996264)" xlink:href="#URWPalladioL-Roma-64"/>
      <use transform="translate(209.513412 0)scale(0.996264)" xlink:href="#URWPalladioL-Roma-69"/>
      <use transform="translate(238.503774 0)scale(0.996264)" xlink:href="#URWPalladioL-Roma-2"/>
      <use transform="translate(298.777032 0)scale(0.996264)" xlink:href="#URWPalladioL-Roma-65"/>
      <use transform="translate(346.497327 0)scale(0.996264)" xlink:href="#URWPalladioL-Roma-64"/>
      <use transform="translate(432.275558 0)scale(0.996264)" xlink:href="#URWPalladioL-Roma-72"/>
      <use transform="translate(469.834875 0)scale(0.996264)" xlink:href="#URWPalladioL-Roma-6f"/>
      <use transform="translate(524.230455 0)scale(0.996264)" xlink:href="#URWPalladioL-Roma-74"/>
      <use transform="translate(556.707543 0)scale(0.996264)" xlink:href="#URWPalladioL-Roma-61"/>
      <use transform="translate(606.520744 0)scale(0.996264)" xlink:href="#URWPalladioL-Roma-74"/>
      <use transform="translate(638.997832 0)scale(0.996264)" xlink:href="#URWPalladioL-Roma-69"/>
      <use transform="translate(667.988193 0)scale(0.996264)" xlink:href="#URWPalladioL-Roma-6f"/>
      <use transform="translate(722.383773 0)scale(0.996264)" xlink:href="#URWPalladioL-Roma-6e"/>
      <use transform="translate(805.272434 0)scale(0.996264)" xlink:href="#URWPalladioL-Roma-76"/>
      <use transform="translate(861.560347 0)scale(0.996264)" xlink:href="#URWPalladioL-Roma-61"/>
      <use transform="translate(911.373548 0)scale(0.996264)" xlink:href="#URWPalladioL-Roma-72"/>
      <use transform="translate(950.725444 0)scale(0.996264)" xlink:href="#URWPalladioL-Roma-69"/>
      <use transform="translate(979.715806 0)scale(0.996264)" xlink:href="#URWPalladioL-Roma-61"/>
      <use transform="translate(1029.529006 0)scale(0.996264)" xlink:href="#URWPalladioL-Roma-6e"/>
      <use transform="translate(1087.511067 0)scale(0.996264)" xlink:href="#URWPalladioL-Roma-63"/>
      <use transform="translate(1131.744636 0)scale(0.996264)" xlink:href="#URWPalladioL-Roma-65"/>
     </g>
    </g>
   </g>
   <g id="line2d_16">
    <path clip-path="url(#p15b8ec33bb)" d="M 69.711465 272.13867 
L 74.070653 232.580137 
L 75.523713 221.181848 
L 78.429833 196.134838 
L 79.882894 185.42877 
L 81.33596 178.248073 
L 82.789024 168.915763 
L 84.242091 161.498719 
L 85.695156 151.538724 
L 87.148221 139.728745 
L 88.601287 131.161193 
L 90.054352 123.565447 
L 91.507418 115.241815 
L 92.960484 110.602684 
L 94.413548 108.5147 
L 95.866614 105.64584 
L 97.319681 101.13189 
L 98.772745 99.154275 
L 100.225811 93.575036 
L 101.678877 88.956319 
L 103.131942 88.369739 
L 104.585008 85.690806 
L 106.038072 81.878994 
L 108.944204 75.145832 
L 110.397269 72.46526 
L 111.850335 67.823689 
L 113.303399 64.539314 
L 114.756449 62.767904 
L 116.209493 60.212465 
L 117.662536 60.423579 
L 119.11558 59.616627 
L 122.021669 52.902261 
L 123.474712 53.301807 
L 124.927756 56.754769 
L 126.3808 56.497328 
L 127.833843 57.060397 
L 129.286887 58.511231 
L 132.192972 57.570043 
L 133.646017 59.308587 
L 135.099061 58.397226 
L 136.552106 57.097862 
L 138.00515 57.373172 
L 139.458194 54.187651 
L 140.911239 54.670469 
L 142.364283 52.841141 
L 143.817327 48.546559 
L 145.270372 48.932604 
L 146.723412 49.86088 
L 148.176457 50.631283 
L 149.629501 49.295544 
L 151.082546 51.158605 
L 152.535588 51.606686 
L 153.988632 54.284105 
L 155.441677 54.398919 
L 156.894719 52.488857 
L 159.800815 52.380629 
L 161.25386 53.441964 
L 162.706904 49.739093 
L 164.159948 52.962223 
L 167.066037 54.979878 
L 168.519076 55.553825 
L 169.97212 54.912702 
L 171.425163 54.884813 
L 172.878207 55.384323 
L 174.331252 58.519601 
L 175.784294 61.027305 
L 177.237339 61.206104 
L 178.690383 60.337762 
L 180.143427 62.280024 
L 181.59647 61.256028 
L 183.049514 67.107115 
L 184.502559 70.300679 
L 185.955601 68.479953 
L 187.408646 70.489352 
L 188.861684 69.193421 
L 190.314729 67.086681 
L 191.767773 71.388948 
L 193.220818 70.647418 
L 194.673862 74.180873 
L 196.126906 75.89259 
L 197.579951 76.380962 
L 199.032995 75.810264 
L 200.486039 76.886267 
L 201.939084 76.781732 
L 203.392128 75.11264 
L 204.845173 75.789762 
L 206.298217 74.554941 
L 207.751261 76.463577 
L 209.204306 76.625605 
L 210.65735 75.114607 
L 212.110394 71.740692 
L 213.563439 70.058021 
L 215.016483 72.035328 
L 216.469527 73.783805 
L 217.922566 73.212365 
L 219.375609 75.38199 
L 220.828653 72.11639 
L 222.281698 72.610606 
L 223.734742 74.112598 
L 225.187785 72.736144 
L 226.640829 71.91087 
L 228.093873 70.762116 
L 229.546916 69.922242 
L 230.99996 70.811038 
L 232.453005 71.315523 
L 233.906047 74.635975 
L 235.359091 78.67651 
L 236.81213 80.119108 
L 238.265175 81.107356 
L 241.171263 90.48159 
L 244.077352 89.100045 
L 245.530397 87.40721 
L 248.436485 89.373098 
L 249.88953 90.271528 
L 251.342665 92.845694 
L 252.795782 93.626782 
L 254.248917 93.240515 
L 255.702052 94.147247 
L 258.608323 97.363637 
L 260.06144 97.812538 
L 261.514575 100.1464 
L 262.96771 104.056007 
L 264.420827 106.110335 
L 265.873962 109.127973 
L 267.327097 105.957583 
L 268.780233 105.437475 
L 270.23335 107.746707 
L 271.686485 108.432576 
L 273.13962 106.681717 
L 274.592737 108.020436 
L 276.045872 108.820107 
L 277.499007 108.520843 
L 278.952142 107.893943 
L 280.405278 108.468074 
L 281.858395 108.240055 
L 283.31153 110.149472 
L 284.764665 109.996874 
L 286.217782 112.899881 
L 287.670917 111.678706 
L 289.124052 113.913 
L 292.030305 112.844731 
L 293.48344 115.767362 
L 294.936575 113.111574 
L 296.38971 110.880048 
L 297.842827 109.646683 
L 299.295962 111.593449 
L 300.749098 111.575117 
L 302.202233 110.155364 
L 303.65535 107.294335 
L 305.108485 109.183326 
L 306.56162 108.042298 
L 308.014755 107.885563 
L 309.467872 109.336898 
L 310.921007 108.759633 
L 312.374143 111.115849 
L 313.827278 112.171263 
L 315.280395 111.804697 
L 316.73353 112.094366 
L 318.186665 113.272349 
L 319.639782 110.162645 
L 321.092917 108.638454 
L 322.546053 109.944626 
L 323.999188 110.67121 
L 325.452305 110.449536 
L 326.90544 112.811769 
L 328.358575 113.505855 
L 329.81171 111.54959 
L 331.264827 111.100737 
L 332.717963 111.925983 
L 334.171098 113.605953 
L 335.624233 112.39934 
L 337.07735 112.835897 
L 338.530485 115.974821 
L 339.98362 115.143336 
L 341.436755 110.434936 
L 342.889872 109.810187 
L 344.343008 114.02821 
L 345.796143 113.676659 
L 347.24926 112.933248 
L 348.702395 110.805967 
L 350.15553 108.303007 
L 351.608665 108.954179 
L 353.061782 107.954967 
L 354.514918 107.656136 
L 355.968053 108.019018 
L 357.421188 110.959779 
L 358.874305 110.066037 
L 360.32744 109.617155 
L 361.780575 111.979571 
L 363.233711 111.078779 
L 364.686828 111.912212 
L 366.139963 115.929439 
L 367.593098 116.344415 
L 369.046233 117.444102 
L 370.49935 118.106094 
L 371.952485 118.6149 
L 373.40562 119.720991 
L 374.858756 121.910703 
L 376.311873 118.210667 
L 377.765008 119.145607 
L 379.218143 119.623805 
L 380.67126 120.256413 
L 383.57753 121.211883 
L 385.030666 119.480484 
L 386.483783 120.45635 
L 387.936918 122.537921 
L 389.390053 124.203205 
L 390.843188 126.587376 
L 392.296305 129.410796 
L 393.74944 132.560636 
L 395.202576 133.70423 
L 396.655711 132.973365 
L 399.561963 135.139229 
L 401.015098 135.880712 
L 402.468233 134.820823 
L 403.92135 134.705025 
L 405.374485 137.053178 
L 406.827621 134.618311 
L 408.280756 133.940513 
L 409.733873 132.57649 
L 411.187008 127.584738 
L 412.640143 127.007 
L 414.093278 126.137511 
L 415.546395 127.806228 
L 416.999531 128.225292 
L 418.452666 125.963148 
L 419.905783 125.991847 
L 421.358918 127.517378 
L 422.812053 125.774812 
L 424.265188 124.690699 
L 425.718305 124.017521 
L 427.171441 125.444371 
L 428.624576 123.859523 
L 430.077693 126.994618 
L 431.530828 129.153491 
L 431.530828 129.153491 
" style="fill:none;stroke:#1f77b4;stroke-linecap:square;stroke-width:1.5;"/>
   </g>
   <g id="line2d_17">
    <path clip-path="url(#p15b8ec33bb)" d="M 69.711465 234.760946 
L 71.164528 193.80235 
L 72.617591 158.982635 
L 74.070653 135.075438 
L 78.429833 75.468598 
L 79.882894 67.830661 
L 81.33596 62.264209 
L 82.789024 53.684487 
L 84.242091 53.094801 
L 85.695156 43.428044 
L 87.148221 31.228528 
L 88.601287 31.339466 
L 90.054352 32.626738 
L 91.507418 32.896425 
L 92.960484 34.501312 
L 94.413548 37.383837 
L 95.866614 42.528235 
L 97.319681 41.084037 
L 98.772745 45.53246 
L 100.225811 42.740718 
L 101.678877 44.759896 
L 103.131942 48.122326 
L 104.585008 50.782463 
L 106.038072 52.107421 
L 107.491138 51.719958 
L 108.944204 50.848357 
L 110.397269 52.270925 
L 111.850335 54.605674 
L 113.303399 55.822327 
L 114.756449 56.382889 
L 116.209493 53.799571 
L 117.662536 53.787401 
L 119.11558 60.866781 
L 120.568625 60.905991 
L 122.021669 60.043647 
L 123.474712 67.741865 
L 124.927756 72.924789 
L 126.3808 67.654775 
L 127.833843 68.828341 
L 129.286887 69.324032 
L 130.739932 72.440833 
L 132.192972 72.751737 
L 133.646017 73.320805 
L 135.099061 77.420889 
L 136.552106 78.047239 
L 138.00515 80.049859 
L 139.458194 78.747457 
L 140.911239 84.405859 
L 142.364283 81.735963 
L 143.817327 77.977005 
L 145.270372 81.427007 
L 146.723412 80.062482 
L 148.176457 84.26521 
L 149.629501 85.394242 
L 151.082546 87.519189 
L 152.535588 87.423681 
L 153.988632 88.210083 
L 155.441677 90.58246 
L 156.894719 89.469764 
L 158.347764 91.273305 
L 159.800815 89.932774 
L 161.25386 93.560908 
L 162.706904 93.703987 
L 164.159948 98.667929 
L 165.612993 102.614469 
L 167.066037 104.115198 
L 168.519076 100.821111 
L 169.97212 97.139659 
L 171.425163 99.428939 
L 172.878207 99.117688 
L 174.331252 99.487909 
L 175.784294 99.713295 
L 177.237339 101.432707 
L 178.690383 96.145769 
L 180.143427 101.841588 
L 181.59647 101.642162 
L 183.049514 107.747855 
L 184.502559 102.703633 
L 185.955601 106.795336 
L 187.408646 114.025056 
L 188.861684 113.716776 
L 190.314729 113.729418 
L 191.767773 117.19048 
L 193.220818 117.313125 
L 194.673862 118.29687 
L 196.126906 114.621811 
L 197.579951 115.195189 
L 199.032995 116.764935 
L 200.486039 115.090201 
L 201.939084 114.70999 
L 203.392128 118.092256 
L 204.845173 119.799016 
L 206.298217 118.005822 
L 207.751261 120.196171 
L 209.204306 115.246386 
L 210.65735 115.316571 
L 212.110394 114.343627 
L 213.563439 116.762399 
L 215.016483 120.018732 
L 216.469527 123.908232 
L 217.922566 117.152196 
L 219.375609 117.473592 
L 220.828653 117.32058 
L 222.281698 117.311602 
L 223.734742 121.431743 
L 225.187785 119.474177 
L 226.640829 118.281807 
L 228.093873 117.470217 
L 229.546916 112.330823 
L 230.99996 116.767288 
L 232.453005 117.140151 
L 233.906047 116.970446 
L 236.81213 120.76194 
L 238.265175 123.899167 
L 239.718219 125.250654 
L 241.171263 127.231837 
L 242.624308 128.668243 
L 244.077352 125.3143 
L 245.530397 123.933526 
L 246.983441 123.180366 
L 248.436485 125.33404 
L 249.88953 125.678484 
L 251.342665 122.075731 
L 252.795782 123.34441 
L 254.248917 119.667287 
L 255.702052 118.920269 
L 257.155187 122.525789 
L 258.608323 126.487557 
L 260.06144 128.963631 
L 261.514575 131.705873 
L 262.96771 129.691487 
L 264.420827 129.249173 
L 265.873962 129.256685 
L 267.327097 126.692162 
L 268.780233 128.009193 
L 270.23335 127.309244 
L 271.686485 127.336043 
L 273.13962 125.360714 
L 274.592737 122.484062 
L 277.499007 124.412264 
L 278.952142 125.836896 
L 280.405278 123.45934 
L 281.858395 125.743008 
L 283.31153 127.671181 
L 284.764665 129.342531 
L 286.217782 125.094247 
L 287.670917 122.232244 
L 289.124052 125.43492 
L 290.577188 122.091922 
L 292.030305 122.770077 
L 293.48344 125.520563 
L 294.936575 125.453638 
L 296.38971 128.013436 
L 297.842827 128.078403 
L 299.295962 132.156056 
L 300.749098 128.595397 
L 302.202233 129.737207 
L 303.65535 123.26921 
L 306.56162 117.779192 
L 308.014755 117.838084 
L 309.467872 116.705455 
L 310.921007 117.2846 
L 312.374143 117.195582 
L 313.827278 126.378616 
L 315.280395 122.627007 
L 316.73353 123.269008 
L 318.186665 129.753707 
L 319.639782 131.624415 
L 321.092917 129.937559 
L 322.546053 133.486212 
L 323.999188 134.677859 
L 325.452305 138.327267 
L 326.90544 141.252193 
L 328.358575 139.307395 
L 329.81171 140.707244 
L 331.264827 141.809024 
L 332.717963 141.263042 
L 334.171098 138.831936 
L 335.624233 136.780433 
L 337.07735 136.172068 
L 338.530485 133.362169 
L 339.98362 134.537432 
L 342.889872 119.34105 
L 344.343008 121.543655 
L 345.796143 118.323515 
L 347.24926 119.138972 
L 348.702395 115.987695 
L 350.15553 118.776543 
L 351.608665 119.644586 
L 353.061782 125.816317 
L 354.514918 124.673032 
L 355.968053 125.039386 
L 357.421188 127.323439 
L 358.874305 127.891504 
L 360.32744 123.090643 
L 361.780575 126.289636 
L 363.233711 135.14299 
L 364.686828 134.696452 
L 366.139963 136.773876 
L 367.593098 136.102723 
L 369.046233 130.739322 
L 370.49935 128.210046 
L 371.952485 130.042942 
L 373.40562 127.728396 
L 374.858756 123.728488 
L 376.311873 123.855299 
L 377.765008 129.640377 
L 379.218143 125.144306 
L 380.67126 126.206577 
L 382.124395 128.191087 
L 383.57753 127.181855 
L 385.030666 128.59127 
L 386.483783 131.809472 
L 387.936918 132.177137 
L 389.390053 129.375868 
L 390.843188 130.484215 
L 392.296305 127.331067 
L 393.74944 127.910907 
L 395.202576 127.621286 
L 396.655711 126.317023 
L 398.108828 132.27657 
L 399.561963 134.478819 
L 401.015098 130.91543 
L 402.468233 128.335362 
L 403.92135 127.893221 
L 405.374485 132.76716 
L 406.827621 131.812413 
L 408.280756 131.200046 
L 409.733873 127.776092 
L 411.187008 121.009641 
L 412.640143 121.076335 
L 414.093278 123.668612 
L 415.546395 130.695763 
L 416.999531 132.024867 
L 418.452666 130.591026 
L 419.905783 128.827485 
L 421.358918 127.713815 
L 422.812053 129.429437 
L 424.265188 129.373669 
L 425.718305 124.112306 
L 427.171441 124.323313 
L 430.077693 129.6073 
L 431.530828 125.550921 
L 431.530828 125.550921 
" style="fill:none;stroke:#ff7f0e;stroke-linecap:square;stroke-width:1.5;"/>
   </g>
   <g id="line2d_18">
    <path clip-path="url(#p15b8ec33bb)" d="M 69.711465 271.570933 
L 72.617591 242.961208 
L 75.523713 216.361739 
L 78.429833 196.832192 
L 81.33596 174.388592 
L 82.789024 167.291386 
L 84.242091 159.578588 
L 85.695156 149.856535 
L 87.148221 147.663294 
L 88.601287 136.160602 
L 90.054352 125.645841 
L 92.960484 115.353939 
L 95.866614 108.778216 
L 97.319681 104.818483 
L 98.772745 101.308394 
L 100.225811 100.866243 
L 101.678877 101.18761 
L 103.131942 94.127382 
L 104.585008 91.914689 
L 106.038072 88.221635 
L 107.491138 82.864137 
L 108.944204 81.357372 
L 111.850335 74.30698 
L 113.303399 72.386657 
L 114.756449 71.027908 
L 116.209493 68.842796 
L 117.662536 69.225524 
L 119.11558 64.585284 
L 120.568625 63.791842 
L 122.021669 65.960628 
L 123.474712 67.407315 
L 124.927756 61.378731 
L 126.3808 59.944764 
L 127.833843 60.020253 
L 129.286887 59.590677 
L 130.739932 58.896283 
L 132.192972 61.162911 
L 133.646017 64.428839 
L 135.099061 64.735634 
L 136.552106 64.776609 
L 138.00515 61.266587 
L 140.911239 61.447016 
L 142.364283 60.302448 
L 143.817327 60.444245 
L 145.270372 61.51964 
L 146.723412 61.372366 
L 148.176457 63.820966 
L 149.629501 63.09769 
L 151.082546 60.092636 
L 152.535588 63.406704 
L 153.988632 62.485101 
L 155.441677 62.928698 
L 156.894719 69.16641 
L 158.347764 67.678469 
L 159.800815 69.845963 
L 161.25386 69.498105 
L 162.706904 74.638637 
L 164.159948 70.572189 
L 165.612993 75.191156 
L 167.066037 75.789367 
L 168.519076 71.840444 
L 169.97212 74.032789 
L 171.425163 70.882409 
L 172.878207 71.827387 
L 174.331252 70.985092 
L 175.784294 68.862459 
L 177.237339 70.366273 
L 178.690383 73.428079 
L 180.143427 71.913994 
L 181.59647 69.756578 
L 183.049514 68.285021 
L 184.502559 70.509083 
L 185.955601 73.96189 
L 187.408646 75.479302 
L 188.861684 77.839567 
L 190.314729 77.985511 
L 191.767773 75.761709 
L 193.220818 79.35856 
L 194.673862 81.492235 
L 196.126906 82.051447 
L 197.579951 82.054919 
L 199.032995 80.892607 
L 200.486039 84.17893 
L 201.939084 86.211021 
L 203.392128 84.261902 
L 204.845173 86.582726 
L 206.298217 85.316526 
L 207.751261 86.564568 
L 209.204306 86.263404 
L 210.65735 86.28649 
L 212.110394 86.570528 
L 213.563439 89.503477 
L 215.016483 89.421682 
L 216.469527 89.935406 
L 217.922566 91.763432 
L 219.375609 88.624393 
L 220.828653 89.088897 
L 222.281698 87.952063 
L 223.734742 85.509047 
L 225.187785 88.844928 
L 226.640829 89.76169 
L 228.093873 88.404725 
L 229.546916 90.007288 
L 230.99996 92.358238 
L 232.453005 93.731018 
L 233.906047 94.467901 
L 235.359091 93.384318 
L 236.81213 92.728392 
L 238.265175 92.756222 
L 239.718219 92.11075 
L 242.624308 90.369534 
L 244.077352 92.781488 
L 245.530397 94.366944 
L 246.983441 94.786558 
L 248.436485 90.31717 
L 249.88953 91.020368 
L 251.342665 92.200029 
L 252.795782 91.492751 
L 254.248917 92.186364 
L 255.702052 92.452021 
L 257.155187 95.001712 
L 258.608323 94.668378 
L 261.514575 94.842393 
L 262.96771 98.734005 
L 264.420827 99.508401 
L 265.873962 97.923186 
L 267.327097 94.957844 
L 268.780233 96.174564 
L 270.23335 97.581173 
L 271.686485 100.815325 
L 273.13962 98.300321 
L 274.592737 97.772363 
L 276.045872 101.736802 
L 277.499007 103.492165 
L 280.405278 110.450028 
L 281.858395 110.265193 
L 283.31153 108.896878 
L 284.764665 110.186155 
L 286.217782 113.41025 
L 287.670917 115.743697 
L 289.124052 116.611229 
L 290.577188 116.780587 
L 292.030305 119.460551 
L 293.48344 114.623759 
L 294.936575 116.252773 
L 296.38971 118.198738 
L 297.842827 115.493258 
L 299.295962 115.03478 
L 300.749098 113.893424 
L 302.202233 116.39729 
L 303.65535 118.549788 
L 305.108485 116.114699 
L 306.56162 115.33308 
L 308.014755 117.216816 
L 309.467872 120.770041 
L 310.921007 118.644592 
L 312.374143 117.847969 
L 313.827278 119.61826 
L 315.280395 119.272852 
L 316.73353 119.919154 
L 318.186665 120.759414 
L 319.639782 120.786136 
L 321.092917 121.337489 
L 322.546053 124.357711 
L 323.999188 125.119195 
L 325.452305 128.973554 
L 326.90544 127.748984 
L 328.358575 125.673643 
L 329.81171 124.560194 
L 334.171098 116.392622 
L 335.624233 117.220953 
L 337.07735 116.089115 
L 338.530485 114.127942 
L 339.98362 116.55576 
L 341.436755 113.326921 
L 342.889872 111.335063 
L 344.343008 113.699658 
L 345.796143 112.856862 
L 347.24926 114.627886 
L 348.702395 116.639272 
L 350.15553 114.943756 
L 351.608665 114.592282 
L 353.061782 115.86261 
L 354.514918 115.932872 
L 355.968053 116.302398 
L 357.421188 114.701716 
L 358.874305 114.075704 
L 360.32744 114.596448 
L 361.780575 114.079359 
L 363.233711 112.319888 
L 364.686828 112.753938 
L 366.139963 113.05434 
L 367.593098 111.641685 
L 371.952485 115.077028 
L 373.40562 117.154134 
L 374.858756 116.538951 
L 376.311873 117.180808 
L 377.765008 117.34735 
L 379.218143 115.921638 
L 380.67126 115.609683 
L 382.124395 113.745011 
L 383.57753 115.589721 
L 385.030666 116.623476 
L 386.483783 118.222076 
L 387.936918 117.657598 
L 389.390053 117.762972 
L 390.843188 116.274211 
L 392.296305 117.828701 
L 393.74944 116.932596 
L 395.202576 116.94385 
L 396.655711 117.424671 
L 399.561963 120.323657 
L 401.015098 119.968412 
L 402.468233 120.178234 
L 403.92135 119.896463 
L 405.374485 124.197177 
L 408.280756 131.212641 
L 409.733873 130.274442 
L 411.187008 130.079789 
L 412.640143 129.184321 
L 414.093278 129.783611 
L 415.546395 129.152459 
L 416.999531 129.753032 
L 418.452666 128.584616 
L 419.905783 130.269109 
L 421.358918 132.125197 
L 422.812053 132.307092 
L 424.265188 134.646229 
L 425.718305 135.079913 
L 427.171441 135.210089 
L 428.624576 137.22784 
L 430.077693 138.641257 
L 431.530828 140.214735 
L 431.530828 140.214735 
" style="fill:none;stroke:#1f77b4;stroke-linecap:square;stroke-width:1.5;"/>
   </g>
   <g id="line2d_19">
    <path clip-path="url(#p15b8ec33bb)" d="M 69.711465 232.837497 
L 71.164528 187.75134 
L 72.617591 155.059489 
L 75.523713 105.392141 
L 76.976773 92.730986 
L 78.429833 81.151697 
L 79.882894 65.147621 
L 81.33596 55.162476 
L 82.789024 52.410456 
L 84.242091 47.309144 
L 85.695156 43.319063 
L 87.148221 54.059857 
L 88.601287 46.879269 
L 91.507418 34.405524 
L 95.866614 48.286524 
L 97.319681 49.777493 
L 98.772745 52.776829 
L 100.225811 54.230999 
L 101.678877 56.24143 
L 103.131942 49.445779 
L 104.585008 48.550879 
L 106.038072 49.91658 
L 107.491138 50.637146 
L 108.944204 52.628156 
L 110.397269 56.652365 
L 111.850335 55.702064 
L 113.303399 54.891033 
L 114.756449 61.763166 
L 116.209493 60.102868 
L 117.662536 60.193612 
L 119.11558 58.93044 
L 120.568625 65.274634 
L 122.021669 76.295029 
L 123.474712 81.484125 
L 124.927756 75.299789 
L 126.3808 77.507487 
L 127.833843 78.944376 
L 129.286887 75.644493 
L 130.739932 77.058826 
L 133.646017 90.220215 
L 135.099061 89.769867 
L 136.552106 88.079887 
L 138.00515 81.28142 
L 139.458194 88.297336 
L 140.911239 89.318536 
L 142.364283 91.575058 
L 143.817327 94.62991 
L 145.270372 102.750779 
L 146.723412 102.432257 
L 148.176457 103.981203 
L 149.629501 106.057923 
L 151.082546 104.932237 
L 153.988632 108.412104 
L 155.441677 110.769785 
L 156.894719 112.364363 
L 158.347764 114.144172 
L 159.800815 117.687097 
L 161.25386 114.753704 
L 164.159948 113.382911 
L 165.612993 112.25139 
L 167.066037 115.444115 
L 168.519076 113.768783 
L 169.97212 112.381982 
L 171.425163 103.820803 
L 172.878207 103.240086 
L 174.331252 100.956852 
L 175.784294 103.8382 
L 177.237339 107.306157 
L 178.690383 109.453458 
L 180.143427 105.109348 
L 181.59647 103.260048 
L 183.049514 102.661298 
L 184.502559 107.849815 
L 185.955601 110.235019 
L 187.408646 104.364509 
L 188.861684 103.017979 
L 190.314729 102.189195 
L 191.767773 95.575949 
L 193.220818 99.01947 
L 194.673862 103.68893 
L 196.126906 105.242523 
L 197.579951 108.084314 
L 199.032995 105.701049 
L 200.486039 116.477995 
L 201.939084 118.54162 
L 203.392128 113.807636 
L 204.845173 118.783139 
L 206.298217 118.932506 
L 207.751261 121.284112 
L 209.204306 119.180342 
L 212.110394 113.880752 
L 213.563439 113.835718 
L 215.016483 108.747145 
L 216.469527 108.792238 
L 217.922566 112.931136 
L 219.375609 106.393514 
L 220.828653 108.509328 
L 222.281698 106.691042 
L 223.734742 109.60539 
L 225.187785 116.500638 
L 228.093873 112.643492 
L 229.546916 122.299227 
L 230.99996 122.614528 
L 232.453005 123.207319 
L 233.906047 126.072244 
L 235.359091 124.404771 
L 236.81213 123.390284 
L 238.265175 122.840531 
L 239.718219 125.133264 
L 241.171263 121.594746 
L 242.624308 123.904702 
L 244.077352 128.634009 
L 245.530397 127.799207 
L 246.983441 123.997019 
L 248.436485 123.191687 
L 249.88953 121.491263 
L 251.342665 121.409303 
L 252.795782 120.502928 
L 254.248917 117.984423 
L 255.702052 119.617585 
L 257.155187 120.629719 
L 258.608323 117.070535 
L 260.06144 116.53223 
L 261.514575 118.669955 
L 262.96771 118.952623 
L 265.873962 120.910729 
L 267.327097 123.884403 
L 268.780233 127.459566 
L 271.686485 129.299463 
L 273.13962 124.891591 
L 274.592737 122.729401 
L 276.045872 125.2102 
L 277.499007 124.706659 
L 278.952142 124.818696 
L 280.405278 129.694342 
L 281.858395 128.906146 
L 283.31153 120.384497 
L 284.764665 121.080761 
L 286.217782 124.798985 
L 287.670917 124.83183 
L 289.124052 129.748432 
L 290.577188 128.714975 
L 292.030305 130.993388 
L 293.48344 129.993857 
L 294.936575 127.851831 
L 296.38971 129.076874 
L 297.842827 121.962276 
L 299.295962 120.260762 
L 300.749098 119.910021 
L 302.202233 124.601555 
L 303.65535 123.321748 
L 305.108485 122.515905 
L 306.56162 124.006402 
L 308.014755 128.074498 
L 309.467872 130.007753 
L 310.921007 129.886024 
L 312.374143 134.081076 
L 313.827278 127.164882 
L 315.280395 129.344237 
L 316.73353 124.078612 
L 319.639782 125.798361 
L 321.092917 129.170839 
L 322.546053 126.454509 
L 323.999188 125.619601 
L 325.452305 123.766599 
L 326.90544 120.891924 
L 328.358575 120.998908 
L 329.81171 119.105114 
L 331.264827 116.606234 
L 332.717963 118.573964 
L 334.171098 112.603433 
L 335.624233 113.912556 
L 337.07735 116.527254 
L 338.530485 115.021771 
L 339.98362 115.812291 
L 341.436755 118.346967 
L 342.889872 116.203573 
L 344.343008 112.147617 
L 345.796143 107.161815 
L 347.24926 112.811249 
L 348.702395 115.303552 
L 350.15553 115.917963 
L 351.608665 117.633489 
L 353.061782 112.301391 
L 354.514918 119.029934 
L 355.968053 115.958572 
L 357.421188 116.435159 
L 358.874305 112.639586 
L 360.32744 117.19345 
L 361.780575 115.192634 
L 363.233711 117.353213 
L 364.686828 117.803667 
L 366.139963 117.503843 
L 367.593098 121.565816 
L 369.046233 127.262223 
L 370.49935 126.99809 
L 371.952485 128.571529 
L 373.40562 126.589807 
L 374.858756 126.414036 
L 376.311873 127.415756 
L 377.765008 128.24077 
L 379.218143 129.258035 
L 380.67126 120.24243 
L 382.124395 121.921803 
L 383.57753 120.535252 
L 385.030666 124.400866 
L 386.483783 123.411306 
L 387.936918 126.940846 
L 389.390053 130.824387 
L 390.843188 124.609328 
L 392.296305 123.770408 
L 393.74944 127.195114 
L 395.202576 125.394138 
L 396.655711 127.483993 
L 398.108828 125.295823 
L 399.561963 121.673263 
L 401.015098 123.083488 
L 402.468233 120.876871 
L 403.92135 119.913155 
L 405.374485 118.12054 
L 406.827621 121.668354 
L 408.280756 115.48941 
L 409.733873 116.593504 
L 411.187008 120.57427 
L 412.640143 120.104867 
L 414.093278 118.709531 
L 415.546395 117.505232 
L 416.999531 123.542958 
L 418.452666 123.125099 
L 419.905783 119.617652 
L 421.358918 122.99716 
L 422.812053 129.534743 
L 424.265188 126.929997 
L 425.718305 123.142255 
L 427.171441 121.359697 
L 428.624576 122.958577 
L 430.077693 119.2518 
L 431.530828 119.031496 
L 431.530828 119.031496 
" style="fill:none;stroke:#ff7f0e;stroke-linecap:square;stroke-width:1.5;"/>
   </g>
   <g id="line2d_20">
    <path clip-path="url(#p15b8ec33bb)" d="M 69.711465 271.936969 
L 71.164528 257.02628 
L 72.617591 243.698028 
L 74.070653 233.437563 
L 75.523713 221.484719 
L 76.976773 213.440188 
L 78.429833 204.375459 
L 79.882894 189.196117 
L 81.33596 182.22959 
L 82.789024 174.498873 
L 84.242091 162.468625 
L 85.695156 156.892703 
L 87.148221 147.474148 
L 88.601287 142.644539 
L 90.054352 137.175775 
L 91.507418 133.591557 
L 92.960484 127.411513 
L 94.413548 119.32184 
L 95.866614 110.267546 
L 97.319681 108.31808 
L 98.772745 103.335016 
L 100.225811 101.589673 
L 101.678877 99.199271 
L 103.131942 100.721331 
L 104.585008 96.512942 
L 106.038072 97.342199 
L 107.491138 96.360219 
L 108.944204 89.38116 
L 110.397269 86.491596 
L 111.850335 88.317192 
L 113.303399 83.012578 
L 114.756449 82.677315 
L 117.662536 72.941838 
L 119.11558 73.447423 
L 120.568625 69.389732 
L 122.021669 61.385539 
L 123.474712 61.149285 
L 124.927756 62.534495 
L 126.3808 62.410056 
L 127.833843 63.913465 
L 129.286887 65.197091 
L 130.739932 60.871699 
L 132.192972 59.323351 
L 135.099061 53.011675 
L 136.552106 52.04634 
L 138.00515 55.028558 
L 139.458194 55.528251 
L 140.911239 50.407633 
L 142.364283 51.887011 
L 143.817327 52.768439 
L 145.270372 48.443799 
L 148.176457 47.013342 
L 151.082546 49.397475 
L 152.535588 48.489682 
L 153.988632 49.569167 
L 156.894719 52.252757 
L 158.347764 52.505328 
L 159.800815 55.837284 
L 161.25386 55.541723 
L 162.706904 56.707622 
L 164.159948 55.377389 
L 165.612993 57.820424 
L 167.066037 58.370196 
L 169.97212 58.417641 
L 171.425163 59.905882 
L 172.878207 58.217184 
L 174.331252 59.02754 
L 175.784294 60.566437 
L 177.237339 65.890058 
L 178.690383 65.311723 
L 180.143427 64.385009 
L 181.59647 66.580131 
L 183.049514 64.83772 
L 184.502559 64.124203 
L 185.955601 64.858222 
L 187.408646 64.632758 
L 188.861684 65.717769 
L 190.314729 68.373171 
L 191.767773 69.202177 
L 193.220818 68.876847 
L 194.673862 66.946379 
L 196.126906 65.319814 
L 197.579951 65.200717 
L 199.032995 67.905456 
L 200.486039 71.417956 
L 201.939084 69.522995 
L 203.392128 70.03101 
L 204.845173 69.852414 
L 206.298217 70.447481 
L 207.751261 71.683883 
L 209.204306 75.623413 
L 210.65735 78.007054 
L 212.110394 78.89233 
L 213.563439 78.411432 
L 215.016483 76.010751 
L 216.469527 77.547391 
L 217.922566 78.416186 
L 219.375609 78.530673 
L 220.828653 80.845518 
L 222.281698 84.67249 
L 223.734742 85.306574 
L 225.187785 88.746951 
L 226.640829 90.63089 
L 228.093873 92.328913 
L 229.546916 95.89828 
L 230.99996 97.838247 
L 232.453005 97.501576 
L 233.906047 97.762161 
L 235.359091 96.557659 
L 236.81213 94.673739 
L 238.265175 94.997459 
L 239.718219 97.422799 
L 241.171263 97.797909 
L 242.624308 98.894886 
L 244.077352 100.741505 
L 245.530397 101.934522 
L 248.436485 100.218176 
L 249.88953 100.849695 
L 251.342665 99.362467 
L 252.795782 97.000755 
L 254.248917 96.030193 
L 255.702052 99.641933 
L 258.608323 98.609962 
L 260.06144 99.848457 
L 261.514575 102.640343 
L 262.96771 100.421237 
L 264.420827 99.02919 
L 265.873962 100.553381 
L 267.327097 98.779667 
L 268.780233 99.251838 
L 270.23335 98.263734 
L 271.686485 98.40503 
L 273.13962 98.214977 
L 274.592737 98.656279 
L 276.045872 97.942223 
L 277.499007 94.167084 
L 278.952142 95.277514 
L 280.405278 95.267041 
L 281.858395 93.70202 
L 283.31153 93.812524 
L 284.764665 96.628654 
L 286.217782 97.637712 
L 287.670917 98.036101 
L 289.124052 97.103091 
L 292.030305 100.935617 
L 293.48344 98.864307 
L 294.936575 98.909921 
L 296.38971 99.12331 
L 297.842827 97.476744 
L 299.295962 99.170804 
L 300.749098 99.768783 
L 302.202233 102.041563 
L 303.65535 101.370246 
L 305.108485 101.570261 
L 306.56162 102.810732 
L 309.467872 100.064055 
L 310.921007 97.462115 
L 312.374143 96.082614 
L 313.827278 97.472627 
L 315.280395 96.515903 
L 316.73353 97.467342 
L 318.186665 95.765163 
L 319.639782 98.011154 
L 321.092917 99.805013 
L 322.546053 102.435304 
L 323.999188 101.096055 
L 325.452305 101.432851 
L 326.90544 100.921461 
L 328.358575 102.321329 
L 329.81171 101.980116 
L 331.264827 101.313273 
L 332.717963 103.11397 
L 335.624233 102.1904 
L 337.07735 104.185971 
L 338.530485 108.515433 
L 339.98362 106.0496 
L 341.436755 106.190095 
L 342.889872 107.709002 
L 344.343008 106.456186 
L 348.702395 100.131858 
L 350.15553 100.077556 
L 351.608665 102.35672 
L 353.061782 101.860065 
L 354.514918 101.599471 
L 355.968053 98.998235 
L 357.421188 100.818797 
L 358.874305 105.724299 
L 360.32744 107.16789 
L 361.780575 107.647554 
L 363.233711 105.705986 
L 364.686828 103.068945 
L 366.139963 101.17651 
L 367.593098 103.416445 
L 369.046233 108.612214 
L 370.49935 110.761405 
L 371.952485 114.062849 
L 373.40562 111.967681 
L 374.858756 112.384306 
L 376.311873 113.991034 
L 377.765008 114.491624 
L 379.218143 116.659051 
L 380.67126 117.019117 
L 382.124395 119.143456 
L 383.57753 119.15659 
L 385.030666 118.472486 
L 386.483783 115.855638 
L 387.936918 117.301428 
L 389.390053 117.994173 
L 390.843188 117.314832 
L 392.296305 115.506999 
L 393.74944 116.759227 
L 395.202576 115.466333 
L 396.655711 117.420341 
L 398.108828 117.411411 
L 399.561963 117.864555 
L 401.015098 116.07357 
L 402.468233 115.951744 
L 403.92135 116.463106 
L 405.374485 117.116776 
L 406.827621 118.134716 
L 409.733873 117.317822 
L 411.187008 119.442518 
L 412.640143 116.557689 
L 414.093278 116.178124 
L 415.546395 112.401336 
L 416.999531 114.859048 
L 418.452666 115.393487 
L 419.905783 117.376213 
L 421.358918 112.056902 
L 422.812053 111.104759 
L 424.265188 110.931476 
L 425.718305 113.309264 
L 427.171441 114.245601 
L 428.624576 114.348834 
L 430.077693 116.383297 
L 431.530828 117.767195 
L 431.530828 117.767195 
" style="fill:none;stroke:#1f77b4;stroke-linecap:square;stroke-width:1.5;"/>
   </g>
   <g id="line2d_21">
    <path clip-path="url(#p15b8ec33bb)" d="M 69.711465 234.060781 
L 71.164528 189.81347 
L 72.617591 155.482449 
L 75.523713 114.625658 
L 76.976773 105.372112 
L 78.429833 97.847312 
L 79.882894 77.821554 
L 82.789024 65.039933 
L 84.242091 54.586966 
L 85.695156 52.709894 
L 87.148221 45.110174 
L 88.601287 48.890395 
L 90.054352 49.968404 
L 91.507418 53.560742 
L 92.960484 47.984868 
L 94.413548 41.077826 
L 95.866614 32.480456 
L 97.319681 38.592717 
L 98.772745 45.827828 
L 100.225811 51.004812 
L 101.678877 48.876817 
L 103.131942 56.306591 
L 104.585008 55.987287 
L 106.038072 59.991525 
L 107.491138 61.670367 
L 110.397269 60.163293 
L 111.850335 64.42122 
L 113.303399 64.233366 
L 114.756449 65.23878 
L 116.209493 65.890878 
L 117.662536 63.89361 
L 119.11558 64.705171 
L 120.568625 62.293496 
L 122.021669 57.768417 
L 123.474712 58.484335 
L 124.927756 63.549137 
L 126.3808 70.121658 
L 127.833843 76.162326 
L 129.286887 79.513569 
L 130.739932 77.181173 
L 132.192972 80.313664 
L 133.646017 80.199457 
L 135.099061 75.030468 
L 136.552106 75.822222 
L 138.00515 81.452002 
L 139.458194 82.488738 
L 140.911239 76.633079 
L 142.364283 84.071686 
L 143.817327 86.190577 
L 145.270372 86.398094 
L 146.723412 89.312557 
L 148.176457 91.280586 
L 149.629501 92.813003 
L 151.082546 95.317563 
L 152.535588 93.342687 
L 153.988632 93.5146 
L 155.441677 93.55301 
L 156.894719 91.375092 
L 158.347764 91.09713 
L 159.800815 90.039382 
L 161.25386 91.004215 
L 162.706904 94.566321 
L 164.159948 92.828182 
L 165.612993 98.358674 
L 167.066037 96.410076 
L 168.519076 100.983873 
L 169.97212 103.769259 
L 171.425163 105.846915 
L 172.878207 107.670862 
L 174.331252 107.601777 
L 175.784294 111.529889 
L 177.237339 112.336252 
L 178.690383 115.206067 
L 180.143427 115.541398 
L 183.049514 109.758556 
L 184.502559 106.914895 
L 185.955601 101.270572 
L 187.408646 98.581755 
L 188.861684 103.26838 
L 190.314729 107.45347 
L 191.767773 107.103241 
L 193.220818 109.557983 
L 194.673862 107.761896 
L 196.126906 111.644453 
L 197.579951 111.92498 
L 199.032995 108.713962 
L 200.486039 114.985512 
L 201.939084 111.13744 
L 203.392128 115.89616 
L 204.845173 116.031698 
L 206.298217 109.007672 
L 207.751261 107.340469 
L 210.65735 115.865368 
L 212.110394 117.31705 
L 213.563439 114.812606 
L 215.016483 112.595641 
L 216.469527 111.904005 
L 217.922566 113.298 
L 219.375609 117.588021 
L 220.828653 114.240973 
L 222.281698 121.506162 
L 223.734742 121.762792 
L 225.187785 122.241945 
L 226.640829 122.268619 
L 228.093873 124.51732 
L 229.546916 125.158887 
L 230.99996 124.412014 
L 232.453005 125.253682 
L 233.906047 124.454165 
L 235.359091 125.147218 
L 236.81213 117.548087 
L 238.265175 118.215653 
L 239.718219 119.125134 
L 241.171263 123.429368 
L 242.624308 122.938836 
L 244.077352 123.503063 
L 245.530397 124.73827 
L 246.983441 126.545794 
L 248.436485 124.549654 
L 249.88953 123.645342 
L 251.342665 121.28011 
L 252.795782 123.40903 
L 254.248917 127.289977 
L 255.702052 129.517684 
L 257.155187 128.775912 
L 258.608323 127.818764 
L 260.06144 126.022185 
L 261.514575 126.473574 
L 262.96771 126.451038 
L 264.420827 124.139963 
L 265.873962 122.201163 
L 267.327097 119.50601 
L 268.780233 119.978596 
L 270.23335 122.605473 
L 271.686485 124.714113 
L 273.13962 125.294145 
L 274.592737 130.792187 
L 276.045872 127.877396 
L 277.499007 125.986032 
L 278.952142 129.129151 
L 280.405278 129.487047 
L 281.858395 125.925269 
L 283.31153 130.903723 
L 284.764665 135.46483 
L 286.217782 135.716021 
L 287.670917 131.947402 
L 289.124052 129.908831 
L 290.577188 131.812153 
L 292.030305 134.132167 
L 293.48344 129.066941 
L 294.936575 128.424631 
L 296.38971 124.798898 
L 297.842827 129.817623 
L 299.295962 128.479319 
L 300.749098 131.431006 
L 302.202233 131.762335 
L 303.65535 130.791512 
L 305.108485 135.981129 
L 306.56162 135.152653 
L 308.014755 132.573915 
L 309.467872 133.750519 
L 310.921007 132.402263 
L 312.374143 128.771563 
L 313.827278 126.496362 
L 315.280395 127.879817 
L 316.73353 126.114068 
L 318.186665 121.647669 
L 319.639782 122.441872 
L 321.092917 123.761748 
L 322.546053 130.036423 
L 323.999188 130.439605 
L 325.452305 126.807941 
L 326.90544 125.870677 
L 328.358575 127.536241 
L 329.81171 126.867643 
L 331.264827 127.615288 
L 332.717963 121.061928 
L 334.171098 124.649984 
L 335.624233 125.009337 
L 337.07735 123.435289 
L 338.530485 126.387073 
L 339.98362 122.398458 
L 341.436755 117.921799 
L 342.889872 124.383623 
L 345.796143 126.951618 
L 347.24926 128.918423 
L 348.702395 128.978916 
L 350.15553 127.868987 
L 351.608665 126.373427 
L 354.514918 128.36272 
L 355.968053 123.535128 
L 357.421188 121.028446 
L 358.874305 125.818709 
L 360.32744 129.158785 
L 361.780575 124.325252 
L 363.233711 123.032011 
L 364.686828 119.527573 
L 366.139963 122.30428 
L 367.593098 122.211231 
L 369.046233 122.742776 
L 370.49935 120.04852 
L 371.952485 119.163842 
L 373.40562 122.16581 
L 374.858756 125.904796 
L 376.311873 126.173153 
L 377.765008 123.959593 
L 379.218143 126.575621 
L 380.67126 129.932409 
L 382.124395 129.166567 
L 383.57753 128.02982 
L 385.030666 126.29764 
L 386.483783 120.315855 
L 387.936918 130.176436 
L 389.390053 132.263484 
L 390.843188 129.325037 
L 392.296305 128.475712 
L 393.74944 126.605467 
L 395.202576 126.943845 
L 396.655711 126.861539 
L 398.108828 126.073681 
L 399.561963 123.058569 
L 401.015098 121.945063 
L 402.468233 127.674132 
L 403.92135 123.452387 
L 405.374485 121.020953 
L 406.827621 117.863591 
L 408.280756 119.835188 
L 409.733873 113.150273 
L 411.187008 116.01083 
L 412.640143 113.409835 
L 414.093278 111.381139 
L 415.546395 110.443461 
L 416.999531 109.788007 
L 418.452666 110.223716 
L 419.905783 112.469766 
L 421.358918 112.185873 
L 422.812053 105.513407 
L 424.265188 109.305875 
L 425.718305 113.434137 
L 427.171441 116.165346 
L 428.624576 115.199799 
L 430.077693 112.13295 
L 431.530828 115.966643 
L 431.530828 115.966643 
" style="fill:none;stroke:#ff7f0e;stroke-linecap:square;stroke-width:1.5;"/>
   </g>
   <g id="line2d_22">
    <path clip-path="url(#p15b8ec33bb)" d="M 68.258403 286.215774 
L 70.680174 261.667201 
L 73.101945 239.326822 
L 75.523715 219.016424 
L 77.945486 200.571712 
L 80.367257 183.841244 
L 82.789028 168.685429 
L 85.210799 154.975614 
L 87.63257 142.593237 
L 90.054341 131.429047 
L 92.476112 121.382379 
L 94.897882 112.360495 
L 97.319653 104.277966 
L 99.741424 97.056103 
L 102.163195 90.622441 
L 104.584966 84.910249 
L 107.006737 79.858089 
L 109.428508 75.409404 
L 111.850279 71.512138 
L 114.27205 68.118386 
L 116.69382 65.18407 
L 119.115591 62.668645 
L 121.537362 60.534818 
L 123.959133 58.748297 
L 126.380904 57.277559 
L 128.802675 56.09363 
L 131.224446 55.169887 
L 133.646217 54.481875 
L 136.067987 54.007136 
L 138.489758 53.725052 
L 140.911529 53.616703 
L 144.544186 53.742355 
L 148.176842 54.167562 
L 151.809498 54.846146 
L 155.442155 55.737635 
L 160.285696 57.196884 
L 165.129238 58.900235 
L 171.183665 61.282311 
L 178.448978 64.388726 
L 190.557832 69.855176 
L 207.510228 77.501129 
L 218.408197 82.163585 
L 228.095281 86.06076 
L 237.782364 89.696889 
L 246.258563 92.656145 
L 254.734761 95.407983 
L 264.421844 98.305182 
L 274.108928 100.949392 
L 283.796011 103.355218 
L 293.483095 105.538797 
L 304.381064 107.750451 
L 315.279033 109.725512 
L 326.177002 111.486654 
L 338.285856 113.218491 
L 351.605596 114.881041 
L 364.925336 116.320988 
L 379.455961 117.671794 
L 395.197472 118.912942 
L 412.149868 120.03112 
L 431.524035 121.078933 
L 431.524035 121.078933 
" style="fill:none;stroke:#000000;stroke-dasharray:5.55,2.4;stroke-dashoffset:0;stroke-width:1.5;"/>
   </g>
   <g id="patch_3">
    <path d="M 68.258403 286.215774 
L 68.258403 16.2 
" style="fill:none;stroke:#000000;stroke-linecap:square;stroke-linejoin:miter;stroke-width:0.8;"/>
   </g>
   <g id="patch_4">
    <path d="M 431.524035 286.215774 
L 431.524035 16.2 
" style="fill:none;stroke:#000000;stroke-linecap:square;stroke-linejoin:miter;stroke-width:0.8;"/>
   </g>
   <g id="patch_5">
    <path d="M 68.258403 286.215774 
L 431.524035 286.215774 
" style="fill:none;stroke:#000000;stroke-linecap:square;stroke-linejoin:miter;stroke-width:0.8;"/>
   </g>
   <g id="patch_6">
    <path d="M 68.258403 16.2 
L 431.524035 16.2 
" style="fill:none;stroke:#000000;stroke-linecap:square;stroke-linejoin:miter;stroke-width:0.8;"/>
   </g>
   <g id="legend_1">
    <g id="line2d_23">
     <path d="M 243.397726 218.438713 
L 273.397726 218.438713 
" style="fill:none;stroke:#1f77b4;stroke-linecap:square;stroke-width:1.5;"/>
    </g>
    <g id="line2d_24"/>
    <g id="text_18">
     <!-- Pychastic -->
     <g transform="translate(285.397726 223.688713)scale(0.15 -0.15)">
      <defs>
       <path d="M 1382 4116 
C 1606 4166 1792 4192 2010 4192 
C 2701 4192 3072 3875 3072 3273 
C 3072 2703 2682 2304 2125 2304 
C 1990 2304 1894 2317 1728 2367 
L 1792 2137 
C 1946 2105 2035 2099 2163 2099 
C 3040 2099 3712 2692 3712 3459 
C 3712 4071 3213 4448 2400 4448 
C 2368 4448 2304 4448 2221 4423 
C 1984 4423 1498 4423 1312 4423 
C 1171 4423 1171 4423 147 4423 
L 147 4224 
L 435 4224 
C 723 4224 774 4140 774 3663 
L 774 766 
C 774 256 742 205 448 205 
L 141 205 
L 141 0 
C 518 0 742 0 1075 0 
C 1408 0 1638 0 2016 0 
L 2016 205 
L 1709 205 
C 1414 205 1382 256 1382 764 
L 1382 4116 
z
" id="URWPalladioL-Roma-50" transform="scale(0.015625)"/>
       <path d="M 1901 564 
C 1760 808 1690 956 1574 1270 
L 1165 2347 
C 1126 2456 1101 2552 1101 2618 
C 1101 2710 1171 2764 1318 2764 
L 1562 2764 
L 1562 2944 
C 941 2944 941 2944 819 2944 
C 698 2944 698 2944 77 2944 
L 77 2777 
L 192 2764 
C 352 2745 429 2674 525 2451 
L 1222 775 
C 1402 340 1466 186 1581 -134 
L 1434 -524 
C 1229 -1062 979 -1362 736 -1362 
C 634 -1362 518 -1311 410 -1215 
L 326 -1215 
L 173 -1696 
C 294 -1760 397 -1792 518 -1792 
C 947 -1792 1222 -1562 1466 -1005 
L 2765 1990 
C 3021 2572 3142 2745 3302 2764 
L 3482 2777 
L 3482 2944 
C 2976 2944 2976 2944 2874 2944 
C 2771 2944 2771 2944 2266 2944 
L 2266 2777 
L 2432 2764 
C 2611 2751 2701 2694 2701 2604 
C 2701 2559 2688 2501 2662 2437 
L 1901 564 
z
" id="URWPalladioL-Roma-79" transform="scale(0.015625)"/>
       <path d="M 45 4248 
L 403 4248 
C 518 4248 563 4177 563 3984 
L 563 643 
C 563 237 544 192 326 192 
L 38 192 
L 38 -7 
C 474 -7 646 -7 832 -7 
C 1018 -7 1190 -7 1626 -7 
L 1626 192 
L 1338 192 
C 1120 192 1101 237 1101 643 
L 1101 2011 
C 1101 2300 1523 2616 1914 2616 
C 2342 2616 2624 2297 2624 1806 
L 2624 -7 
C 3014 -7 3021 -7 3130 -7 
C 3219 -7 3219 -7 3661 -7 
L 3661 179 
L 3398 205 
C 3181 205 3162 244 3162 654 
L 3162 1892 
C 3162 2642 2810 3008 2093 3008 
C 1856 3008 1722 2963 1587 2847 
L 1101 2424 
L 1101 4613 
L 1043 4665 
C 762 4556 550 4504 45 4427 
L 45 4248 
z
" id="URWPalladioL-Roma-68" transform="scale(0.015625)"/>
       <path d="M 262 917 
C 262 475 243 282 192 26 
C 525 -83 774 -128 1069 -128 
C 1907 -128 2502 321 2502 949 
C 2502 1148 2445 1295 2323 1424 
C 2157 1584 1946 1661 1382 1770 
C 858 1873 685 2001 685 2296 
C 685 2616 909 2796 1299 2796 
C 1728 2796 2054 2572 2054 2270 
L 2054 2123 
L 2234 2123 
C 2240 2495 2246 2648 2266 2847 
C 1926 2963 1696 3008 1434 3008 
C 691 3008 237 2655 237 2078 
C 237 1770 378 1552 672 1417 
C 845 1340 1184 1238 1619 1141 
C 1907 1077 2029 943 2029 699 
C 2029 353 1709 109 1254 109 
C 787 109 454 333 454 654 
L 454 917 
L 262 917 
z
" id="URWPalladioL-Roma-73" transform="scale(0.015625)"/>
      </defs>
      <use transform="scale(0.996264)" xlink:href="#URWPalladioL-Roma-50"/>
      <use transform="translate(60.173595 0)scale(0.996264)" xlink:href="#URWPalladioL-Roma-79"/>
      <use transform="translate(115.565272 0)scale(0.996264)" xlink:href="#URWPalladioL-Roma-63"/>
      <use transform="translate(159.798841 0)scale(0.996264)" xlink:href="#URWPalladioL-Roma-68"/>
      <use transform="translate(217.780902 0)scale(0.996264)" xlink:href="#URWPalladioL-Roma-61"/>
      <use transform="translate(267.594102 0)scale(0.996264)" xlink:href="#URWPalladioL-Roma-73"/>
      <use transform="translate(309.835568 0)scale(0.996264)" xlink:href="#URWPalladioL-Roma-74"/>
      <use transform="translate(342.312656 0)scale(0.996264)" xlink:href="#URWPalladioL-Roma-69"/>
      <use transform="translate(371.303018 0)scale(0.996264)" xlink:href="#URWPalladioL-Roma-63"/>
     </g>
    </g>
    <g id="line2d_25">
     <path d="M 243.397726 240.845185 
L 273.397726 240.845185 
" style="fill:none;stroke:#ff7f0e;stroke-linecap:square;stroke-width:1.5;"/>
    </g>
    <g id="line2d_26"/>
    <g id="text_19">
     <!-- Evensen et al (2008) -->
     <g transform="translate(285.397726 246.095185)scale(0.15 -0.15)">
      <defs>
       <path d="M 141 4224 
L 448 4224 
C 742 4224 774 4172 774 3665 
L 774 784 
C 774 276 749 231 448 205 
L 218 186 
L 218 0 
C 640 0 826 0 1005 0 
C 1037 0 1216 0 1459 0 
C 2349 0 2349 0 2490 0 
C 2688 0 2688 0 3558 0 
C 3558 382 3597 736 3661 1079 
L 3437 1079 
C 3424 972 3411 878 3405 852 
C 3366 564 3283 356 3194 323 
C 3059 276 2592 276 2016 276 
C 1683 276 1568 286 1382 315 
L 1382 2100 
C 1562 2112 1754 2112 2042 2112 
C 2515 2112 2688 2094 2803 2040 
L 2854 1890 
L 2886 1536 
L 3078 1536 
C 3059 2132 3059 2132 3059 2247 
C 3059 2350 3059 2350 3078 2991 
L 2886 2991 
L 2854 2642 
C 2848 2581 2829 2521 2803 2467 
C 2688 2414 2509 2394 2086 2394 
C 1818 2394 1600 2394 1382 2394 
L 1382 4117 
C 1581 4160 1690 4160 2131 4160 
C 2496 4160 2854 4130 3059 4076 
C 3213 4039 3232 4008 3232 3868 
L 3232 3465 
L 3456 3465 
C 3456 3843 3488 4146 3558 4423 
C 3245 4423 3046 4423 2765 4423 
C 2605 4423 2394 4423 2131 4423 
C 1728 4423 1453 4423 1280 4423 
C 1062 4423 774 4423 141 4423 
L 141 4224 
z
" id="URWPalladioL-Roma-45" transform="scale(0.015625)"/>
       <path d="M 147 4256 
L 506 4256 
C 621 4256 666 4185 666 3992 
L 666 651 
C 666 244 646 199 429 199 
L 134 199 
L 134 0 
C 774 0 774 0 934 0 
C 1094 0 1094 0 1734 0 
L 1734 199 
L 1440 199 
C 1222 199 1203 244 1203 650 
L 1203 4621 
L 1146 4673 
C 864 4564 653 4512 147 4435 
L 147 4256 
z
" id="URWPalladioL-Roma-6c" transform="scale(0.015625)"/>
       <path d="M 1926 -1244 
C 1466 -673 1299 -366 1133 212 
C 998 673 934 1161 934 1706 
C 934 2238 998 2693 1120 3110 
C 1286 3642 1459 3944 1926 4489 
L 1805 4656 
C 1139 4059 877 3707 634 3078 
C 467 2648 384 2193 384 1706 
C 384 1020 544 372 851 -205 
C 1075 -635 1280 -885 1805 -1379 
L 1926 -1244 
z
" id="URWPalladioL-Roma-28" transform="scale(0.015625)"/>
       <path d="M 1075 2211 
C 813 2090 704 2019 563 1884 
C 320 1641 192 1352 192 1019 
C 192 359 723 -128 1446 -128 
C 2278 -128 2970 526 2970 1320 
C 2970 1833 2733 2109 2003 2442 
C 2586 2840 2790 3109 2790 3493 
C 2790 4044 2336 4416 1658 4416 
C 896 4416 339 3929 339 3257 
C 339 2821 512 2577 1075 2211 
z
M 1818 1891 
C 2221 1711 2464 1397 2464 1052 
C 2464 513 2061 90 1542 90 
C 998 90 646 475 646 1071 
C 646 1538 832 1833 1306 2122 
L 1818 1891 
z
M 1427 2712 
C 1024 2910 819 3167 819 3487 
C 819 3910 1126 4198 1581 4198 
C 2048 4198 2355 3891 2355 3422 
C 2355 3058 2195 2808 1779 2538 
L 1427 2712 
z
" id="URWPalladioL-Roma-38" transform="scale(0.015625)"/>
       <path d="M 326 -1379 
C 768 -962 954 -750 1152 -436 
C 1542 186 1747 930 1747 1699 
C 1747 2193 1664 2648 1498 3078 
C 1254 3700 992 4053 326 4656 
L 205 4489 
C 672 3937 845 3636 1005 3110 
C 1133 2693 1197 2238 1197 1706 
C 1197 1161 1133 673 998 212 
C 832 -366 666 -673 205 -1244 
L 326 -1379 
z
" id="URWPalladioL-Roma-29" transform="scale(0.015625)"/>
      </defs>
      <use transform="scale(0.996264)" xlink:href="#URWPalladioL-Roma-45"/>
      <use transform="translate(60.871631 0)scale(0.996264)" xlink:href="#URWPalladioL-Roma-76"/>
      <use transform="translate(117.159544 0)scale(0.996264)" xlink:href="#URWPalladioL-Roma-65"/>
      <use transform="translate(164.879839 0)scale(0.996264)" xlink:href="#URWPalladioL-Roma-6e"/>
      <use transform="translate(222.8619 0)scale(0.996264)" xlink:href="#URWPalladioL-Roma-73"/>
      <use transform="translate(265.103366 0)scale(0.996264)" xlink:href="#URWPalladioL-Roma-65"/>
      <use transform="translate(312.823661 0)scale(0.996264)" xlink:href="#URWPalladioL-Roma-6e"/>
      <use transform="translate(395.712322 0)scale(0.996264)" xlink:href="#URWPalladioL-Roma-65"/>
      <use transform="translate(443.432617 0)scale(0.996264)" xlink:href="#URWPalladioL-Roma-74"/>
      <use transform="translate(500.816305 0)scale(0.996264)" xlink:href="#URWPalladioL-Roma-61"/>
      <use transform="translate(550.629506 0)scale(0.996264)" xlink:href="#URWPalladioL-Roma-6c"/>
      <use transform="translate(604.526468 0)scale(0.996264)" xlink:href="#URWPalladioL-Roma-28"/>
      <use transform="translate(637.701697 0)scale(0.996264)" xlink:href="#URWPalladioL-Roma-32"/>
      <use transform="translate(687.514898 0)scale(0.996264)" xlink:href="#URWPalladioL-Roma-30"/>
      <use transform="translate(737.328098 0)scale(0.996264)" xlink:href="#URWPalladioL-Roma-30"/>
      <use transform="translate(787.141299 0)scale(0.996264)" xlink:href="#URWPalladioL-Roma-38"/>
      <use transform="translate(836.954499 0)scale(0.996264)" xlink:href="#URWPalladioL-Roma-29"/>
     </g>
    </g>
    <g id="line2d_27">
     <path d="M 243.397726 263.251658 
L 273.397726 263.251658 
" style="fill:none;stroke:#000000;stroke-dasharray:5.55,2.4;stroke-dashoffset:0;stroke-width:1.5;"/>
    </g>
    <g id="line2d_28"/>
    <g id="text_20">
     <!-- Cichocki et al (2015) -->
     <g transform="translate(285.397726 268.501658)scale(0.15 -0.15)">
      <defs>
       <path d="M 4288 539 
L 4230 603 
C 3834 346 3392 218 2906 218 
C 1658 218 826 1051 826 2313 
C 826 3493 1555 4274 2656 4274 
C 3283 4274 3930 4018 3930 3769 
L 3930 3307 
L 4128 3307 
C 4134 3627 4160 3857 4250 4280 
C 3706 4460 3238 4544 2771 4544 
C 2214 4544 1683 4409 1254 4159 
C 525 3730 141 3057 141 2192 
C 141 807 1152 -128 2656 -128 
C 3187 -128 3667 -13 4109 218 
L 4288 539 
z
" id="URWPalladioL-Roma-43" transform="scale(0.015625)"/>
       <path d="M 147 4256 
L 506 4256 
C 621 4256 666 4185 666 3992 
L 666 651 
C 666 244 646 199 429 199 
L 134 199 
L 134 0 
C 774 0 774 0 941 0 
C 1120 0 1152 0 1722 0 
L 1722 199 
L 1440 199 
C 1222 199 1203 244 1203 652 
L 1203 1546 
L 2899 -64 
L 3514 122 
L 3514 270 
C 3360 270 3174 379 2970 576 
L 2163 1374 
C 1933 1597 1862 1681 1754 1808 
L 2579 2449 
C 2880 2677 3053 2752 3270 2752 
L 3270 2944 
L 2630 2944 
C 2221 2536 1920 2255 1670 2057 
L 1203 1680 
L 1203 4621 
L 1146 4673 
C 864 4564 653 4512 147 4435 
L 147 4256 
z
" id="URWPalladioL-Roma-6b" transform="scale(0.015625)"/>
      </defs>
      <use transform="scale(0.996264)" xlink:href="#URWPalladioL-Roma-43"/>
      <use transform="translate(70.634793 0)scale(0.996264)" xlink:href="#URWPalladioL-Roma-69"/>
      <use transform="translate(99.625154 0)scale(0.996264)" xlink:href="#URWPalladioL-Roma-63"/>
      <use transform="translate(143.858723 0)scale(0.996264)" xlink:href="#URWPalladioL-Roma-68"/>
      <use transform="translate(201.840784 0)scale(0.996264)" xlink:href="#URWPalladioL-Roma-6f"/>
      <use transform="translate(256.236364 0)scale(0.996264)" xlink:href="#URWPalladioL-Roma-63"/>
      <use transform="translate(300.469933 0)scale(0.996264)" xlink:href="#URWPalladioL-Roma-6b"/>
      <use transform="translate(355.86161 0)scale(0.996264)" xlink:href="#URWPalladioL-Roma-69"/>
      <use transform="translate(409.758571 0)scale(0.996264)" xlink:href="#URWPalladioL-Roma-65"/>
      <use transform="translate(457.478866 0)scale(0.996264)" xlink:href="#URWPalladioL-Roma-74"/>
      <use transform="translate(514.862555 0)scale(0.996264)" xlink:href="#URWPalladioL-Roma-61"/>
      <use transform="translate(564.675755 0)scale(0.996264)" xlink:href="#URWPalladioL-Roma-6c"/>
      <use transform="translate(618.572717 0)scale(0.996264)" xlink:href="#URWPalladioL-Roma-28"/>
      <use transform="translate(651.747947 0)scale(0.996264)" xlink:href="#URWPalladioL-Roma-32"/>
      <use transform="translate(701.561147 0)scale(0.996264)" xlink:href="#URWPalladioL-Roma-30"/>
      <use transform="translate(751.374348 0)scale(0.996264)" xlink:href="#URWPalladioL-Roma-31"/>
      <use transform="translate(801.187548 0)scale(0.996264)" xlink:href="#URWPalladioL-Roma-35"/>
      <use transform="translate(851.000749 0)scale(0.996264)" xlink:href="#URWPalladioL-Roma-29"/>
     </g>
    </g>
   </g>
  </g>
 </g>
 <defs>
  <clipPath id="p15b8ec33bb">
   <rect height="270.015774" width="363.265632" x="68.258403" y="16.2"/>
  </clipPath>
 </defs>
</svg>
